<?xml version="1.0" encoding="utf-8"?>
<!-- Generator: Adobe Illustrator 27.3.1, SVG Export Plug-In . SVG Version: 6.00 Build 0)  -->
<svg version="1.1" id="Capa_2_00000029753487910099993290000000688443807787918760_"
	 xmlns="http://www.w3.org/2000/svg" xmlns:xlink="http://www.w3.org/1999/xlink" x="0px" y="0px" viewBox="0 0 214.3 214.3"
	 style="enable-background:new 0 0 214.3 214.3;" xml:space="preserve">
<style type="text/css">
	.st0{clip-path:url(#SVGID_00000135649552402653556690000014312145662983996291_);}
	.st1{fill:#F3F7FA;}
	.st2{opacity:0.4;}
	.st3{opacity:5.000000e-02;fill:#3B4C56;enable-background:new    ;}
	.st4{opacity:0.1;fill:#3B4C56;enable-background:new    ;}
	.st5{opacity:0.2;fill:#3B4C56;enable-background:new    ;}
	.st6{opacity:0.15;fill:#3B4C56;enable-background:new    ;}
</style>
<g id="Capa_1-2">
	<g>
		<g>
			<defs>
				<rect id="SVGID_1_" y="0" width="214.3" height="214.3"/>
			</defs>
			<clipPath id="SVGID_00000101806536494626243460000014800292559498554244_">
				<use xlink:href="#SVGID_1_"  style="overflow:visible;"/>
			</clipPath>
			<g style="clip-path:url(#SVGID_00000101806536494626243460000014800292559498554244_);">
				<rect y="0" class="st1" width="214.3" height="214.3"/>
				<g class="st2">
					<circle class="st3" cx="213.8" cy="213.6" r="67.1"/>
					<circle class="st4" cx="213.8" cy="213.6" r="46.5"/>
					<circle class="st5" cx="213.8" cy="213.6" r="25.8"/>
				</g>
				<g class="st2">
					<circle class="st3" cx="0.7" cy="0.7" r="67.1"/>
					<circle class="st4" cx="0.7" cy="0.7" r="46.5"/>
					<circle class="st5" cx="0.7" cy="0.7" r="25.8"/>
				</g>
			</g>
		</g>
		<path class="st6" d="M75.9,107.2h62.5c3.4,0,6.2-2.8,6.2-6.2V63.4c0-3.4-2.8-6.2-6.2-6.2h-18.8v25l-12.5-6.2l-12.5,6.2v-25H75.9
			c-3.4,0-6.2,2.8-6.2,6.2v37.5C69.6,104.3,72.5,107.2,75.9,107.2z M161.9,122.8c-2.6-3.5-7.4-4.2-10.9-1.7l-23.4,17.2H104
			c-1.7,0-3.1-1.4-3.1-3.1s1.4-3.1,3.1-3.1h15.3c3.1,0,6-2.1,6.5-5.2c0.6-3.9-2.4-7.3-6.2-7.3H88.4c-5.3,0-10.4,1.8-14.5,5.1
			l-9.1,7.4H54c-1.7,0-3.1,1.4-3.1,3.1V154c0,1.7,1.4,3.1,3.1,3.1h67.8c4.3,0,8.6-1.4,12.1-4l26.4-19.4
			C163.7,131.2,164.4,126.3,161.9,122.8L161.9,122.8z"/>
	</g>
</g>
</svg>
