<?xml version="1.0" encoding="utf-8"?>
<!-- Generator: Adobe Illustrator 27.3.1, SVG Export Plug-In . SVG Version: 6.00 Build 0)  -->
<svg version="1.1" id="Capa_2_00000144328490003204426600000003761875582852188342_"
	 xmlns="http://www.w3.org/2000/svg" xmlns:xlink="http://www.w3.org/1999/xlink" x="0px" y="0px" viewBox="0 0 214.3 214.3"
	 style="enable-background:new 0 0 214.3 214.3;" xml:space="preserve">
<style type="text/css">
	.st0{clip-path:url(#SVGID_00000149345041154380843250000016879846985438548627_);}
	.st1{fill:#F3F7FA;}
	.st2{opacity:0.4;}
	.st3{opacity:5.000000e-02;fill:#3B4C56;enable-background:new    ;}
	.st4{opacity:0.1;fill:#3B4C56;enable-background:new    ;}
	.st5{opacity:0.2;fill:#3B4C56;enable-background:new    ;}
	.st6{opacity:0.15;}
	.st7{fill:#3B4C56;}
</style>
<g id="Capa_1-2">
	<g>
		<g>
			<defs>
				<rect id="SVGID_1_" y="0" width="214.3" height="214.3"/>
			</defs>
			<clipPath id="SVGID_00000163768219269335366290000010850373069185897653_">
				<use xlink:href="#SVGID_1_"  style="overflow:visible;"/>
			</clipPath>
			<g style="clip-path:url(#SVGID_00000163768219269335366290000010850373069185897653_);">
				<rect y="0" class="st1" width="214.3" height="214.3"/>
				<g class="st2">
					<circle class="st3" cx="213.8" cy="213.6" r="67.1"/>
					<circle class="st4" cx="213.8" cy="213.6" r="46.5"/>
					<circle class="st5" cx="213.8" cy="213.6" r="25.8"/>
				</g>
				<g class="st2">
					<circle class="st3" cx="0.7" cy="0.7" r="67.1"/>
					<circle class="st4" cx="0.7" cy="0.7" r="46.5"/>
					<circle class="st5" cx="0.7" cy="0.7" r="25.8"/>
				</g>
			</g>
		</g>
		<g class="st6">
			<path class="st7" d="M159.7,159c0,4.5-3.6,8.1-8.1,8.1H62.8c-4.5,0-8.1-3.6-8.1-8.1c0-22.4,18.2-40.6,40.6-40.6H119
				C141.5,118.4,159.7,136.6,159.7,159z M148.2,155.9c-1.6-14.7-14.1-26.2-29.2-26.2H95.3c-15.1,0-27.7,11.5-29.2,26.2H148.2z
				 M77.2,77.2c0-16.6,13.4-30,30-30s30,13.4,30,30s-13.4,30-30,30S77.2,93.7,77.2,77.2z M88.4,77.2c0,10.3,8.4,18.8,18.8,18.8
				s18.8-8.4,18.8-18.8s-8.4-18.7-18.8-18.7S88.4,66.8,88.4,77.2z"/>
		</g>
	</g>
</g>
</svg>
