<?xml version="1.0" encoding="UTF-8"?>
<svg xmlns="http://www.w3.org/2000/svg" xmlns:xlink="http://www.w3.org/1999/xlink" viewBox="0 0 436.4 372.68">
  <defs>
    <style>
      .cls-1 {
        fill: #bc1373;
      }

      .cls-2 {
        fill: #700a46;
      }

      .cls-3 {
        fill: url(#Degradado_sin_nombre_6-2);
      }

      .cls-4 {
        fill: #f4f4f4;
      }

      .cls-5 {
        fill: #fff;
      }

      .cls-6 {
        mix-blend-mode: soft-light;
        opacity: .54;
      }

      .cls-7 {
        fill: #3d3d3d;
      }

      .cls-8 {
        fill: url(#Degradado_sin_nombre_6);
      }

      .cls-9 {
        fill: #0e1c41;
      }

      .cls-10 {
        fill: #4a4a4a;
      }

      .cls-11 {
        clip-path: url(#clippath-2);
      }

      .cls-12 {
        isolation: isolate;
      }

      .cls-13 {
        fill: #bd1373;
      }

      .cls-14 {
        clip-path: url(#clippath-1);
      }

      .cls-15 {
        fill: #c3e4e4;
      }

      .cls-16 {
        fill: #ffc1af;
      }

      .cls-17 {
        fill: url(#Degradado_sin_nombre_2);
      }

      .cls-18 {
        fill: #ff8e20;
      }

      .cls-19 {
        fill: #ffc99c;
      }

      .cls-20 {
        clip-path: url(#clippath);
      }

      .cls-21 {
        fill: #2c2c2c;
      }

      .cls-22 {
        fill: #750c47;
      }

      .cls-23 {
        fill: none;
      }

      .cls-24 {
        fill: url(#Degradado_sin_nombre_6-3);
      }

      .cls-25 {
        fill: #ffc73f;
      }

      .cls-26 {
        fill: #ffbeac;
      }

      .cls-27 {
        fill: url(#Degradado_sin_nombre_6-4);
      }

      .cls-28 {
        fill: #ffa800;
      }

      .cls-29 {
        fill: #e3ffff;
      }

      .cls-30 {
        fill: #eee;
      }

      .cls-31 {
        fill: url(#Degradado_sin_nombre_2-2);
      }
    </style>
    <linearGradient id="Degradado_sin_nombre_6" data-name="Degradado sin nombre 6" x1="-1329.73" y1="364.26" x2="-1481.67" y2="68.14" gradientTransform="translate(-1074.07 819.62) rotate(161.89)" gradientUnits="userSpaceOnUse">
      <stop offset="0" stop-color="#ff8e20"/>
      <stop offset="1" stop-color="#fff"/>
    </linearGradient>
    <linearGradient id="Degradado_sin_nombre_6-2" data-name="Degradado sin nombre 6" x1="0" y1="192.76" x2="78.69" y2="192.76" gradientTransform="translate(226.93 133.46) rotate(84)" xlink:href="#Degradado_sin_nombre_6"/>
    <linearGradient id="Degradado_sin_nombre_2" data-name="Degradado sin nombre 2" x1="79.37" y1="51.74" x2="127.38" y2="99.75" gradientTransform="translate(4.95 22.42) rotate(1.01)" gradientUnits="userSpaceOnUse">
      <stop offset="0" stop-color="#fff"/>
      <stop offset="1" stop-color="#fff" stop-opacity=".2"/>
    </linearGradient>
    <linearGradient id="Degradado_sin_nombre_2-2" data-name="Degradado sin nombre 2" x1="55.29" y1="43.86" x2="78.58" y2="67.16" gradientTransform="matrix(1,0,0,1,0,0)" xlink:href="#Degradado_sin_nombre_2"/>
    <linearGradient id="Degradado_sin_nombre_6-3" data-name="Degradado sin nombre 6" x1="306.14" y1="46.74" x2="362.52" y2="103.12" gradientTransform="matrix(1,0,0,1,0,0)" xlink:href="#Degradado_sin_nombre_6"/>
    <linearGradient id="Degradado_sin_nombre_6-4" data-name="Degradado sin nombre 6" x1="238.67" y1="33.29" x2="266.03" y2="60.65" gradientTransform="matrix(1,0,0,1,0,0)" xlink:href="#Degradado_sin_nombre_6"/>
    <clipPath id="clippath">
      <path class="cls-23" d="m326.01,344.92l41.07-.15s32.84-59.84,21.06-71.05c-15.25-14.49-73.06-19.5-84.12-1.61-8.55,13.83,22,72.81,22,72.81Z"/>
    </clipPath>
    <clipPath id="clippath-1">
      <path class="cls-23" d="m68.6,345l29.4-.11s23.52-42.85,15.08-50.87c-10.92-10.37-52.31-13.96-60.23-1.15-6.12,9.9,15.75,52.13,15.75,52.13Z"/>
    </clipPath>
    <clipPath id="clippath-2">
      <path class="cls-23" d="m219.96,187.72c-4.57-.74-9.2-1.24-13.88-1.48-8.11-.42-16.14-.07-24.02,1.03l-17.33,2.41c-21.48-25.81-29.97-55.83-17.27-67.89,16.42-15.6,78.69-21,90.6-1.73,9.21,14.89-19.8,69.28-18.1,67.67Z"/>
    </clipPath>
  </defs>
  <g class="cls-12">
    <g id="Capa_2" data-name="Capa 2">
      <g id="Capa_1-2" data-name="Capa 1">
        <g>
          <g>
            <g>
              <g>
                <path class="cls-8" d="m77.25,144.42c.69.92,1.36,1.86,2.01,2.83,11.84,17.76,17.69,39.83,14.72,61.09-2.06,14.75-7.89,28.7-11.06,43.25-3.77,17.3-3.6,39.73,13.25,50.13,13.64,8.42,31.48,2.71,46.36,2.4,27.22-.57,47.45,23.99,75.5,22.66,20.04-.95,38.59-14.79,46.26-33.15,5.46-13.07,4.82-27.9,10.25-40.99,7.92-19.08,29.05-20.72,46.41-25.43,25.58-6.93,54.06-23.97,62.06-50.87,13.18-44.32-26.87-61.71-61.87-70.41-44.15-10.97-87.23-22.14-122.13-53.16-10.91-9.7-20.53-20.79-31.42-30.52C138.56-3.66,100.13-7.1,66.27,12.76c-32.46,19.04-53.99,61.72-27.19,94.94,11.24,13.93,27.36,22.38,38.17,36.71Z"/>
                <g class="cls-6">
                  <path class="cls-5" d="m297.34,166.67c-28.06,37-56.11,74-84.17,111l-29.94,39.48c3.42,1.67,6.87,3.29,10.38,4.7l156.56-206.46c-3.49-1.55-7.09-2.95-10.75-4.22-14.03,18.5-28.06,37-42.08,55.5Z"/>
                  <path class="cls-5" d="m172.83,128.09c-28.72,38.02-57.4,76.06-86.1,114.1-.61.81-1.22,1.62-1.83,2.43-.62,2.3-1.19,4.61-1.7,6.93-.92,4.23-1.61,8.78-1.87,13.37L227.1,72.7c-2.84-1.64-5.65-3.38-8.42-5.19-15.3,20.18-30.58,40.37-45.85,60.58Z"/>
                  <path class="cls-5" d="m103.74,56.97c-16.5,21.76-33,43.51-49.49,65.27,2.84,2.39,5.71,4.74,8.53,7.15,10.76-14.19,21.52-28.38,32.28-42.57L152.49,11.07c-3.31-1.91-6.71-3.58-10.16-5-12.86,16.96-25.73,33.93-38.59,50.89Z"/>
                  <path class="cls-5" d="m88.07,45.22c-16,21.1-32,42.19-47.99,63.29,2.56,3.07,5.34,5.88,8.25,8.55L134.57,3.34c-4.17-1.24-8.41-2.14-12.7-2.7-11.27,14.86-22.53,29.72-33.8,44.58Z"/>
                </g>
              </g>
              <circle class="cls-3" cx="39.35" cy="192.76" r="39.34" transform="translate(-156.47 211.72) rotate(-84)"/>
            </g>
            <g>
              <path class="cls-17" d="m153.75,102c-.28-1.4-1.18-2.64-2.68-3.36-2.41-1.17-4.83-.3-6.87,1.1-.04-3.25-1.32-6.57-4.55-7.92-2.45-1.03-4.96-.59-6.84.91-1.48-12.57-6.19-28.69-21.21-28.72-14.84-.03-23.29,13.04-29.66,24.7-1.39-1.78-3.57-2.62-6.04-2.26-3.99.58-6.2,4.18-7.72,7.61-1.28-.77-3-.64-4.27.33-1.74,1.34-2.58,3.76-3.31,5.95l93.15,1.65Z"/>
              <path class="cls-31" d="m89.66,56.08c-.15-.68-.59-1.27-1.33-1.61-1.18-.54-2.35-.1-3.33.59-.05-1.58-.7-3.17-2.28-3.81-1.2-.48-2.41-.24-3.31.5-.83-6.09-3.25-13.87-10.54-13.75-7.2.11-11.19,6.53-14.18,12.24-.69-.85-1.75-1.24-2.95-1.05-1.93.31-2.97,2.08-3.68,3.76-.63-.36-1.46-.29-2.07.2-.83.66-1.22,1.85-1.56,2.92h45.21Z"/>
            </g>
            <g>
              <path class="cls-24" d="m389.31,76.33c-.36-1.64-1.44-3.07-3.21-3.89-2.85-1.32-5.68-.25-8.05,1.44-.12-3.82-1.68-7.68-5.51-9.21-2.89-1.15-5.84-.59-8.02,1.22-2-14.73-7.86-33.56-25.5-33.28-17.42.28-27.08,15.8-34.32,29.62-1.66-2.06-4.24-3-7.14-2.53-4.67.76-7.19,5.04-8.91,9.1-1.52-.88-3.53-.69-5.01.48-2.02,1.61-2.95,4.47-3.77,7.06h109.42Z"/>
              <path class="cls-27" d="m279.04,47.64c-.18-.8-.7-1.49-1.56-1.89-1.38-.64-2.76-.12-3.91.7-.06-1.85-.82-3.73-2.67-4.47-1.4-.56-2.83-.29-3.89.59-.97-7.15-3.82-16.29-12.38-16.15-8.46.13-13.14,7.67-16.65,14.38-.81-1-2.06-1.46-3.46-1.23-2.27.37-3.49,2.45-4.32,4.41-.74-.43-1.72-.34-2.43.23-.98.78-1.43,2.17-1.83,3.42h53.1Z"/>
            </g>
          </g>
          <g class="cls-20">
            <g>
              <path class="cls-13" d="m312.47,280.5s1.53.2,4.04.79c2.52.6,6.02,1.59,9.98,3.31,3.96,1.73,8.4,4.21,12.61,7.9,2.1,1.85,4.14,4.01,6,6.48,1.84,2.49,3.49,5.3,4.78,8.41,1.24,3.06,2.04,6.1,2.42,8.9.39,2.81.4,5.41.18,7.78-.47,4.74-1.84,8.59-3.4,11.66-1.56,3.08-3.31,5.41-4.73,7.06-1.41,1.65-2.49,2.61-2.77,2.85-.36-3.07-.73-6.13-1.17-9.19.92-1.5,1.83-3.03,2.72-4.58.9-1.59,1.79-3.19,2.61-4.87,1.66-3.34,3.17-6.86,4.37-10.69-1.43,3.66-3.03,7.1-4.76,10.37-.87,1.63-1.75,3.24-2.67,4.81-.79,1.35-1.59,2.68-2.41,4l-.33-2.11c-.42-2.55-.91-5.09-1.49-7.6.8-1.55,1.55-3.14,2.27-4.78.73-1.7,1.43-3.44,2.04-5.26,1.22-3.63,2.15-7.49,2.77-11.47-.42,1.91-.93,3.84-1.44,5.69-.55,1.89-1.11,3.71-1.76,5.5-.66,1.78-1.34,3.52-2.09,5.2-.64,1.43-1.3,2.82-2,4.18-.72-2.99-1.57-5.95-2.64-8.84l-.24-.61.68-2.03c.21-.68.41-1.37.61-2.07.43-1.49.79-2.97,1.11-4.51.63-3.06,1.11-6.23,1.37-9.44-.51,3.11-1.12,6.22-1.82,9.22-.4,1.52-.73,2.99-1.18,4.46-.36,1.19-.7,2.33-1.11,3.48-1.22-3.03-2.64-5.98-4.22-8.84.47-2.27.85-4.58,1.11-6.94.14-1.21.26-2.44.34-3.66.09-1.23.15-2.47.17-3.71-.16,1.2-.32,2.41-.48,3.62-.16,1.2-.33,2.4-.51,3.6-.16,1.05-.33,2.1-.52,3.15-.19,1.05-.36,2.08-.58,3.11-.91-1.62-1.88-3.21-2.88-4.77-.77-1.17-1.53-2.34-2.34-3.47.14-1.34.26-2.69.31-4.05.02-.7.05-1.41.06-2.1,0-.7,0-1.41-.03-2.12-.11.68-.18,1.37-.28,2.05-.07.68-.15,1.37-.24,2.05-.12,1.13-.25,2.26-.37,3.4-.73-1.04-1.49-2.07-2.25-3.09-1.8-2.38-3.68-4.7-5.58-7,1.82,2.36,3.62,4.74,5.34,7.17.77,1.08,1.54,2.16,2.28,3.26-1.13-.29-2.28-.55-3.41-.77-1.28-.25-2.59-.47-3.87-.61,1.27.39,2.56.73,3.83,1.09,1.29.35,2.57.69,3.85,1.04l.14.04c.75,1.11,1.46,2.23,2.17,3.36,1.01,1.62,1.99,3.25,2.91,4.92-1.01-.38-2.04-.71-3.06-1.04-1.01-.33-2.04-.62-3.06-.89-1.11-.3-2.22-.57-3.34-.82-1.11-.23-2.22-.47-3.35-.65,1.11.32,2.2.62,3.3.95,1.11.31,2.2.64,3.31.99,2.21.7,4.42,1.43,6.62,2.28l.04.02c1.54,2.86,2.93,5.8,4.1,8.82-1.11-.59-2.28-1.13-3.41-1.65-1.32-.6-2.69-1.15-4.01-1.64-1.37-.48-2.69-.93-4.06-1.34-1.36-.39-2.7-.76-4.07-1.06,1.35.43,2.66.86,4,1.34,1.33.46,2.66.96,3.99,1.51,1.31.56,2.67,1.1,3.97,1.73.65.31,1.33.62,1.98.96l1.95,1.04.17.45c1.1,2.91,1.98,5.9,2.73,8.92-1.31-.93-2.63-1.81-3.95-2.64-1.5-.92-3-1.8-4.53-2.55-1.51-.76-3.08-1.43-4.59-2.05-1.58-.59-3.09-1.14-4.67-1.59,1.54.57,3.03,1.17,4.56,1.85.75.33,1.5.68,2.26,1.04.76.36,1.49.76,2.25,1.16,1.49.83,2.99,1.69,4.47,2.64,1.48.95,2.95,1.97,4.39,3.04l.03.02c.58,2.45,1.07,4.92,1.5,7.4l.39,2.27c-1.24-1.04-2.49-2.07-3.75-3.06-1.39-1.09-2.78-2.16-4.22-3.14-1.42-.99-2.86-1.92-4.3-2.78-1.45-.85-2.91-1.63-4.38-2.31,1.41.79,2.84,1.63,4.24,2.56,1.42.91,2.82,1.9,4.21,2.93,1.39,1.04,2.78,2.1,4.16,3.22,1.38,1.11,2.74,2.26,4.1,3.44l.1.09c.48,2.99.92,5.99,1.36,8.98-.33-.16-1.62-.81-3.42-2.02-1.79-1.21-4.09-2.97-6.46-5.25-2.37-2.28-4.82-5.06-7-8.15-1.09-1.54-2.12-3.16-3.06-4.83-.93-1.69-1.79-3.38-2.55-5.27-.81-1.94-1.49-3.96-2.07-6.04-.61-2.08-1.12-4.24-1.57-6.42-.91-4.36-1.61-8.84-2.06-12.88-.46-4.04-.68-7.62-.75-10.19-.07-2.56,0-4.11,0-4.11Z"/>
              <path class="cls-2" d="m339.95,336.6c-1.36-1.17-2.73-2.33-4.1-3.44-1.38-1.12-2.77-2.18-4.16-3.22-1.39-1.04-2.79-2.02-4.21-2.93-1.4-.94-2.83-1.77-4.24-2.56,1.47.68,2.93,1.47,4.38,2.31,1.44.86,2.88,1.79,4.3,2.78,1.43.97,2.82,2.05,4.22,3.14,1.26.99,2.51,2.01,3.75,3.06l-.39-2.27c-.43-2.48-.92-4.95-1.5-7.4l-.03-.02c-1.45-1.07-2.92-2.09-4.39-3.04-1.48-.96-2.98-1.82-4.47-2.64-.76-.4-1.49-.79-2.25-1.16-.76-.36-1.52-.71-2.26-1.04-1.53-.68-3.02-1.28-4.56-1.85,1.59.45,3.1,1,4.67,1.59,1.51.62,3.08,1.29,4.59,2.05,1.53.75,3.03,1.63,4.53,2.55,1.33.83,2.65,1.71,3.95,2.64-.75-3.02-1.63-6.01-2.73-8.92l-.17-.45-1.95-1.04c-.65-.33-1.32-.65-1.98-.96-1.3-.63-2.67-1.17-3.97-1.73-1.33-.54-2.66-1.04-3.99-1.51-1.34-.48-2.65-.91-4-1.34,1.38.3,2.71.67,4.07,1.06,1.36.4,2.68.86,4.06,1.34,1.32.49,2.7,1.04,4.01,1.64,1.13.52,2.3,1.05,3.41,1.65-1.18-3.02-2.56-5.96-4.1-8.82l-.04-.02c-2.21-.84-4.42-1.58-6.62-2.28-1.1-.35-2.19-.68-3.31-.99-1.1-.33-2.19-.63-3.3-.95,1.13.18,2.23.42,3.35.65,1.12.25,2.23.53,3.34.82,1.03.27,2.05.56,3.06.89,1.02.32,2.05.66,3.06,1.04-.92-1.67-1.9-3.3-2.91-4.92-.71-1.13-1.42-2.26-2.17-3.36l-.14-.04c-1.28-.35-2.56-.69-3.85-1.04-1.27-.35-2.56-.69-3.83-1.09,1.29.14,2.59.35,3.87.61,1.13.22,2.28.47,3.41.77-.74-1.1-1.51-2.18-2.28-3.26-1.72-2.43-3.52-4.81-5.34-7.17,1.9,2.3,3.78,4.62,5.58,7,.76,1.02,1.52,2.05,2.25,3.09.12-1.14.25-2.27.37-3.4.08-.68.16-1.37.24-2.05.1-.68.17-1.37.28-2.05.03.72.02,1.42.03,2.12-.01.7-.04,1.4-.06,2.1-.05,1.36-.17,2.71-.31,4.05.81,1.14,1.57,2.31,2.34,3.47,1,1.57,1.97,3.15,2.88,4.77.22-1.04.4-2.06.58-3.11.19-1.05.36-2.1.52-3.15.19-1.2.36-2.4.51-3.6.16-1.21.32-2.41.48-3.62-.02,1.24-.09,2.49-.17,3.71-.08,1.22-.2,2.45-.34,3.66-.26,2.36-.64,4.68-1.11,6.94,1.58,2.86,3,5.81,4.22,8.84.42-1.15.76-2.3,1.11-3.48.45-1.47.78-2.95,1.18-4.46.71-3,1.31-6.11,1.82-9.22-.25,3.21-.74,6.38-1.37,9.44-.32,1.55-.68,3.03-1.11,4.51-.2.7-.4,1.38-.61,2.07l-.68,2.03.24.61c1.07,2.89,1.91,5.85,2.64,8.84.7-1.36,1.36-2.75,2-4.18.75-1.68,1.43-3.43,2.09-5.2.66-1.79,1.21-3.61,1.76-5.5.51-1.85,1.02-3.78,1.44-5.69-.62,3.98-1.55,7.84-2.77,11.47-.6,1.82-1.3,3.56-2.04,5.26-.72,1.64-1.47,3.23-2.27,4.78.58,2.52,1.06,5.06,1.49,7.6l.33,2.11c.82-1.31,1.62-2.64,2.41-4,.92-1.57,1.8-3.18,2.67-4.81,1.73-3.27,3.33-6.72,4.76-10.37-1.2,3.83-2.71,7.35-4.37,10.69-.82,1.68-1.71,3.28-2.61,4.87-.89,1.55-1.8,3.08-2.72,4.58.44,3.06.81,6.13,1.17,9.19-.05.04-.08.07-.08.07,0,0-.04-.02-.09-.04-.44-3-.88-5.99-1.36-8.98l-.1-.09Z"/>
            </g>
            <g>
              <path class="cls-22" d="m371.51,278.52s.66,1.62,1.5,4.39c.85,2.77,1.88,6.7,2.69,11.27.81,4.57,1.4,9.79,1.41,15.12.01,5.34-.56,10.79-2.08,16.03-1.49,5.11-3.62,9.29-6.08,12.78-2.42,3.41-5.04,5.95-7.5,8.26-2.45,2.27-4.73,4.32-6.46,5.95-1.72,1.62-2.92,2.77-3.24,3.05-.55-3.35-.61-6.76-.38-10.14,1.42-1.39,2.89-2.68,4.4-3.89,1.53-1.24,3.1-2.38,4.67-3.53,1.58-1.14,3.18-2.25,4.8-3.35,1.6-1.1,3.22-2.17,4.84-3.23-1.69.93-3.37,1.92-5.01,2.95-1.66,1.03-3.31,2.1-4.92,3.19-1.62,1.08-3.19,2.24-4.75,3.46-1.33,1.05-2.66,2.16-3.94,3.34.07-.78.16-1.55.25-2.33.34-2.81.85-5.6,1.44-8.38,1.61-1.16,3.19-2.28,4.81-3.37,1.68-1.13,3.34-2.2,5.03-3.28,3.34-2.14,6.76-4.15,10.13-6.14-3.5,1.73-6.98,3.63-10.39,5.67-1.73,1.01-3.4,2.09-5.09,3.19-1.44.93-2.84,1.9-4.26,2.9.7-3.3,1.57-6.56,2.46-9.81l.19-.7c1.36-.85,2.69-1.69,4.06-2.51,1.44-.85,2.87-1.69,4.32-2.54,2.88-1.68,5.76-3.29,8.64-4.93-3,1.37-5.95,2.86-8.87,4.44-1.48.77-2.92,1.61-4.37,2.45-1.18.68-2.34,1.37-3.5,2.08.97-3.45,2.02-6.88,3.16-10.28,2.26-1.28,4.56-2.51,6.82-3.76,2.33-1.28,4.66-2.53,6.97-3.83-2.42,1.03-4.81,2.16-7.18,3.33-2.11,1.03-4.19,2.13-6.27,3.27.66-1.93,1.32-3.86,2.01-5.78l1.56-4.34c1.34-.7,2.7-1.39,4.03-2.12l2.04-1.12c.67-.4,1.35-.77,2.01-1.18-.72.26-1.43.57-2.14.85l-2.11.93c-1.17.52-2.32,1.08-3.47,1.66l1.48-3.94c1.14-3.08,2.31-6.15,3.49-9.22-1.28,3.03-2.56,6.06-3.81,9.1l-1.62,4.09c-.49-1.23-.98-2.46-1.51-3.68-.6-1.39-1.19-2.77-1.85-4.12.4,1.49.87,2.93,1.36,4.37.49,1.44,1.02,2.85,1.57,4.26l.06.15-1.57,4.13c-.73,1.98-1.43,3.96-2.12,5.95-.98-2.26-1.95-4.53-2.93-6.79l-1.59-3.72-1.62-3.71c.41,1.31.87,2.59,1.31,3.88l1.42,3.82c.96,2.54,1.99,5.02,3.06,7.48l.02.05c-1.16,3.4-2.25,6.83-3.24,10.28-.66-1.29-1.3-2.6-1.92-3.91-.72-1.55-1.45-3.1-2.17-4.64-.72-1.55-1.44-3.12-2.13-4.69-.71-1.57-1.41-3.14-2.12-4.71.56,1.65,1.19,3.27,1.81,4.89.63,1.6,1.29,3.21,1.95,4.8.65,1.59,1.38,3.15,2.09,4.7.7,1.54,1.45,3.08,2.19,4.58l-.15.51c-.89,3.33-1.73,6.68-2.43,10.05-.91-1.56-1.83-3.16-2.69-4.77-.99-1.81-1.93-3.67-2.89-5.51-.96-1.86-1.87-3.73-2.78-5.63-.93-1.89-1.79-3.79-2.71-5.71.77,2.01,1.57,3.95,2.4,5.91.85,1.94,1.71,3.85,2.61,5.75.87,1.89,1.85,3.74,2.81,5.57.96,1.82,1.98,3.63,2.99,5.39l.02.04c-.55,2.73-1.03,5.48-1.34,8.25-.09.85-.16,1.69-.22,2.54-1.13-1.45-2.21-2.97-3.25-4.55-1.15-1.74-2.22-3.55-3.3-5.36-1.08-1.82-2.1-3.64-3.11-5.48-1.05-1.84-2.02-3.7-3.02-5.58.86,1.97,1.78,3.89,2.73,5.8.95,1.88,1.94,3.76,2.96,5.63,1.01,1.87,2.11,3.68,3.25,5.45,1.14,1.76,2.33,3.46,3.6,5.06l.09.12c-.16,3.35,0,6.72.65,10.01-.38-.16-1.93-.77-4.01-2.31-2.06-1.52-4.61-4.04-6.79-7.73-2.17-3.66-3.89-8.47-4.59-13.73-.7-5.17-.47-11.03,1.33-17.23,1.84-6.34,5.01-11.82,8.61-16.38,3.61-4.56,7.66-8.22,11.43-11.08,3.77-2.87,7.26-4.96,9.81-6.36,2.55-1.39,4.15-2.09,4.15-2.09Z"/>
              <path class="cls-1" d="m350.82,345.3c-1.27-1.6-2.47-3.3-3.6-5.06-1.13-1.76-2.24-3.58-3.25-5.45-1.02-1.86-2.01-3.74-2.96-5.63-.95-1.91-1.87-3.83-2.73-5.8,1,1.87,1.98,3.74,3.02,5.58,1.01,1.84,2.04,3.66,3.11,5.48,1.08,1.81,2.16,3.62,3.3,5.36,1.04,1.58,2.12,3.1,3.25,4.55.06-.85.13-1.7.22-2.54.31-2.77.79-5.52,1.34-8.25l-.02-.04c-1.01-1.76-2.03-3.56-2.99-5.39-.96-1.83-1.93-3.68-2.81-5.57-.91-1.9-1.76-3.81-2.61-5.75-.83-1.96-1.63-3.9-2.4-5.91.91,1.91,1.78,3.82,2.71,5.71.91,1.9,1.82,3.77,2.78,5.63.95,1.84,1.89,3.7,2.89,5.51.86,1.61,1.78,3.21,2.69,4.77.7-3.38,1.54-6.72,2.43-10.05l.15-.51c-.74-1.51-1.49-3.05-2.19-4.58-.7-1.55-1.44-3.11-2.09-4.7-.66-1.59-1.33-3.19-1.95-4.8-.61-1.62-1.24-3.25-1.81-4.89.71,1.57,1.41,3.14,2.12,4.71.69,1.57,1.4,3.14,2.13,4.69.72,1.55,1.45,3.09,2.17,4.64.62,1.31,1.26,2.62,1.92,3.91.99-3.46,2.08-6.88,3.24-10.28l-.02-.05c-1.08-2.46-2.1-4.94-3.06-7.48l-1.42-3.82c-.44-1.29-.89-2.57-1.31-3.88l1.62,3.71,1.59,3.72c.98,2.26,1.95,4.52,2.93,6.79.69-1.99,1.39-3.98,2.12-5.95l1.57-4.13-.06-.15c-.55-1.41-1.08-2.82-1.57-4.26-.5-1.44-.96-2.88-1.36-4.37.67,1.36,1.26,2.74,1.85,4.12.53,1.22,1.02,2.45,1.51,3.68l1.62-4.09c1.24-3.04,2.52-6.07,3.81-9.1-1.18,3.07-2.35,6.14-3.49,9.22l-1.48,3.94c1.15-.57,2.31-1.14,3.47-1.66l2.11-.93c.71-.28,1.42-.59,2.14-.85-.66.41-1.34.78-2.01,1.18l-2.04,1.12c-1.33.73-2.69,1.42-4.03,2.12l-1.56,4.34c-.7,1.92-1.36,3.85-2.01,5.78,2.08-1.14,4.16-2.24,6.27-3.27,2.37-1.17,4.76-2.3,7.18-3.33-2.31,1.3-4.64,2.56-6.97,3.83-2.26,1.25-4.55,2.48-6.82,3.76-1.14,3.4-2.19,6.83-3.16,10.28,1.16-.71,2.32-1.4,3.5-2.08,1.45-.84,2.89-1.68,4.37-2.45,2.92-1.58,5.87-3.07,8.87-4.44-2.88,1.64-5.76,3.25-8.64,4.93-1.44.85-2.88,1.7-4.32,2.54-1.37.81-2.7,1.65-4.06,2.51l-.19.7c-.89,3.25-1.75,6.52-2.46,9.81,1.42-.99,2.81-1.96,4.26-2.9,1.68-1.1,3.36-2.19,5.09-3.19,3.41-2.04,6.89-3.93,10.39-5.67-3.37,1.99-6.79,4-10.13,6.14-1.69,1.08-3.35,2.15-5.03,3.28-1.62,1.08-3.19,2.21-4.81,3.37-.59,2.77-1.1,5.57-1.44,8.38-.1.78-.18,1.55-.25,2.33,1.28-1.19,2.6-2.29,3.94-3.34,1.56-1.21,3.13-2.38,4.75-3.46,1.61-1.09,3.26-2.16,4.92-3.19,1.64-1.03,3.33-2.01,5.01-2.95-1.62,1.06-3.24,2.13-4.84,3.23-1.62,1.1-3.22,2.21-4.8,3.35-1.57,1.15-3.14,2.29-4.67,3.53-1.51,1.21-2.98,2.5-4.4,3.89-.23,3.38-.17,6.79.38,10.14-.05.05-.09.08-.09.08,0,0-.04-.02-.11-.04-.64-3.29-.8-6.66-.65-10.01l-.09-.12Z"/>
            </g>
          </g>
          <g class="cls-14">
            <g>
              <path class="cls-13" d="m58.91,298.88s1.09.14,2.89.57c1.8.43,4.31,1.14,7.15,2.37,2.83,1.24,6.01,3.01,9.03,5.66,1.51,1.32,2.96,2.87,4.29,4.64,1.31,1.79,2.5,3.8,3.42,6.02.89,2.19,1.46,4.37,1.73,6.37.28,2.01.29,3.87.13,5.57-.34,3.4-1.32,6.15-2.44,8.35-1.12,2.2-2.37,3.87-3.38,5.05-1.01,1.18-1.78,1.87-1.98,2.04-.26-2.2-.52-4.39-.84-6.58.66-1.08,1.31-2.17,1.95-3.28.64-1.14,1.28-2.28,1.87-3.48,1.19-2.39,2.27-4.91,3.13-7.66-1.02,2.62-2.17,5.08-3.41,7.43-.62,1.17-1.25,2.32-1.91,3.44-.56.97-1.14,1.92-1.73,2.86l-.23-1.51c-.3-1.82-.65-3.64-1.07-5.45.57-1.11,1.11-2.25,1.62-3.42.53-1.22,1.03-2.46,1.46-3.76.87-2.6,1.54-5.37,1.98-8.21-.3,1.37-.67,2.75-1.03,4.08-.4,1.35-.79,2.66-1.26,3.94-.47,1.27-.96,2.52-1.5,3.72-.46,1.02-.93,2.02-1.43,2.99-.52-2.14-1.13-4.26-1.89-6.33l-.17-.44.49-1.46c.15-.49.29-.98.44-1.48.31-1.06.57-2.12.8-3.23.45-2.19.8-4.46.98-6.76-.37,2.22-.8,4.46-1.3,6.6-.29,1.09-.53,2.14-.85,3.2-.26.85-.5,1.67-.8,2.49-.87-2.17-1.89-4.28-3.02-6.33.34-1.62.61-3.28.8-4.97.1-.87.19-1.75.24-2.62.06-.88.11-1.77.13-2.66-.11.86-.23,1.73-.34,2.59-.11.86-.23,1.72-.37,2.57-.12.75-.24,1.5-.37,2.26-.13.75-.26,1.49-.42,2.23-.65-1.16-1.35-2.3-2.06-3.42-.55-.84-1.1-1.67-1.68-2.49.1-.96.19-1.93.22-2.9.02-.5.04-1.01.05-1.5,0-.5,0-1.01-.02-1.52-.08.49-.13.98-.2,1.47-.05.49-.11.98-.17,1.47-.09.81-.18,1.62-.26,2.43-.52-.75-1.07-1.48-1.61-2.21-1.29-1.71-2.63-3.37-3.99-5.01,1.31,1.69,2.6,3.39,3.83,5.14.55.77,1.11,1.55,1.63,2.34-.81-.21-1.63-.4-2.44-.55-.92-.18-1.85-.33-2.77-.44.91.28,1.83.53,2.74.78.92.25,1.84.5,2.76.74l.1.03c.54.79,1.05,1.6,1.56,2.41.72,1.16,1.43,2.33,2.08,3.52-.72-.27-1.46-.51-2.19-.74-.72-.23-1.46-.44-2.19-.64-.79-.21-1.59-.41-2.39-.59-.8-.17-1.59-.34-2.4-.47.79.23,1.58.44,2.36.68.8.22,1.58.46,2.37.71,1.58.5,3.16,1.03,4.74,1.63h.03c1.1,2.06,2.09,4.16,2.94,6.33-.8-.43-1.63-.81-2.44-1.18-.94-.43-1.93-.82-2.87-1.17-.98-.34-1.93-.67-2.9-.96-.98-.28-1.93-.54-2.92-.76.96.31,1.9.62,2.86.96.95.33,1.91.69,2.86,1.08.94.4,1.91.79,2.84,1.24.47.22.95.45,1.42.69l1.4.74.12.32c.79,2.08,1.41,4.22,1.95,6.39-.94-.66-1.88-1.29-2.83-1.89-1.08-.66-2.15-1.29-3.24-1.83-1.08-.55-2.21-1.03-3.29-1.47-1.13-.42-2.21-.81-3.35-1.14,1.1.41,2.17.84,3.26,1.33.54.24,1.08.49,1.62.75.54.26,1.07.54,1.61.83,1.06.59,2.14,1.21,3.2,1.89,1.06.68,2.11,1.41,3.15,2.18l.02.02c.41,1.75.76,3.52,1.07,5.3l.28,1.62c-.89-.75-1.78-1.48-2.68-2.19-1-.78-1.99-1.55-3.02-2.25-1.02-.71-2.05-1.37-3.08-1.99-1.04-.61-2.08-1.17-3.14-1.65,1.01.57,2.03,1.17,3.03,1.84,1.02.65,2.02,1.36,3.01,2.1.99.75,1.99,1.51,2.98,2.31.99.8,1.96,1.62,2.94,2.46l.07.06c.35,2.14.66,4.29.97,6.43-.24-.11-1.16-.58-2.45-1.45-1.28-.86-2.93-2.13-4.63-3.76-1.7-1.63-3.45-3.62-5.01-5.84-.78-1.1-1.52-2.26-2.19-3.46-.67-1.21-1.28-2.42-1.83-3.78-.58-1.39-1.07-2.83-1.48-4.33-.44-1.49-.8-3.04-1.13-4.6-.65-3.12-1.15-6.33-1.48-9.22-.33-2.89-.49-5.46-.54-7.29-.05-1.84,0-2.94,0-2.94Z"/>
              <path class="cls-2" d="m78.58,339.05c-.97-.84-1.95-1.66-2.94-2.46-.99-.8-1.99-1.56-2.98-2.31-1-.74-2-1.45-3.01-2.1-1-.67-2.03-1.27-3.03-1.84,1.06.48,2.1,1.05,3.14,1.65,1.03.62,2.06,1.28,3.08,1.99,1.03.7,2.02,1.47,3.02,2.25.9.71,1.8,1.44,2.68,2.19l-.28-1.62c-.31-1.78-.66-3.54-1.07-5.3l-.02-.02c-1.04-.77-2.09-1.49-3.15-2.18-1.06-.68-2.14-1.3-3.2-1.89-.54-.29-1.07-.57-1.61-.83-.55-.26-1.09-.51-1.62-.75-1.09-.49-2.16-.92-3.26-1.33,1.14.32,2.22.72,3.35,1.14,1.08.44,2.2.92,3.29,1.47,1.1.54,2.17,1.17,3.24,1.83.95.59,1.89,1.22,2.83,1.89-.54-2.16-1.17-4.3-1.95-6.39l-.12-.32-1.4-.74c-.47-.24-.95-.46-1.42-.69-.93-.45-1.91-.84-2.84-1.24-.95-.39-1.91-.75-2.86-1.08-.96-.34-1.9-.65-2.86-.96.99.21,1.94.48,2.92.76.98.29,1.92.61,2.9.96.95.35,1.93.75,2.87,1.17.81.37,1.65.75,2.44,1.18-.84-2.16-1.84-4.27-2.94-6.31h-.03c-1.58-.61-3.16-1.14-4.74-1.64-.79-.25-1.57-.49-2.37-.71-.79-.24-1.57-.45-2.36-.68.81.13,1.6.3,2.4.47.8.18,1.6.38,2.39.59.74.19,1.47.4,2.19.64.73.23,1.47.47,2.19.74-.66-1.2-1.36-2.37-2.08-3.52-.51-.81-1.02-1.62-1.56-2.41l-.1-.03c-.92-.25-1.83-.49-2.76-.74-.91-.25-1.83-.5-2.74-.78.92.1,1.86.25,2.77.44.81.15,1.63.34,2.44.55-.53-.79-1.08-1.56-1.63-2.34-1.23-1.74-2.52-3.45-3.83-5.14,1.36,1.65,2.7,3.31,3.99,5.01.54.73,1.09,1.47,1.61,2.21.09-.81.18-1.63.26-2.43.06-.49.12-.98.17-1.47.07-.49.12-.98.2-1.47.02.51.02,1.01.02,1.52,0,.5-.03,1.01-.05,1.5-.03.98-.12,1.94-.22,2.9.58.81,1.13,1.65,1.68,2.49.71,1.12,1.41,2.26,2.06,3.42.16-.74.28-1.48.42-2.23.14-.75.25-1.5.37-2.26.14-.86.26-1.72.37-2.57.11-.86.23-1.73.34-2.59-.02.89-.06,1.78-.13,2.66-.06.87-.15,1.75-.24,2.62-.19,1.69-.46,3.35-.8,4.97,1.13,2.05,2.15,4.16,3.02,6.33.3-.82.54-1.64.8-2.49.32-1.05.56-2.11.85-3.2.51-2.15.94-4.38,1.3-6.6-.18,2.3-.53,4.57-.98,6.76-.23,1.11-.49,2.17-.8,3.23-.14.5-.28.99-.44,1.48l-.49,1.46.17.44c.76,2.07,1.37,4.19,1.89,6.33.5-.98.98-1.97,1.43-2.99.53-1.2,1.03-2.45,1.5-3.72.47-1.28.87-2.59,1.26-3.94.36-1.33.73-2.71,1.03-4.08-.44,2.85-1.11,5.61-1.98,8.21-.43,1.3-.93,2.55-1.46,3.76-.51,1.17-1.05,2.31-1.62,3.42.42,1.8.76,3.62,1.07,5.45l.23,1.51c.59-.94,1.16-1.89,1.73-2.86.66-1.12,1.29-2.28,1.91-3.44,1.24-2.34,2.39-4.81,3.41-7.43-.86,2.74-1.94,5.27-3.13,7.66-.59,1.2-1.23,2.35-1.87,3.48-.64,1.11-1.29,2.2-1.95,3.28.32,2.19.58,4.39.84,6.58-.03.03-.06.05-.06.05,0,0-.03-.01-.07-.03-.32-2.15-.63-4.29-.97-6.43l-.07-.06Z"/>
            </g>
            <g>
              <path class="cls-22" d="m101.18,297.46s.47,1.16,1.08,3.14c.61,1.98,1.35,4.8,1.93,8.07.58,3.27,1,7.01,1.01,10.83,0,3.83-.4,7.73-1.49,11.48-1.06,3.66-2.59,6.65-4.35,9.15-1.73,2.44-3.61,4.26-5.37,5.92-1.75,1.63-3.39,3.09-4.62,4.26-1.23,1.16-2.09,1.99-2.32,2.19-.39-2.4-.44-4.84-.27-7.26,1.01-1,2.07-1.92,3.15-2.79,1.1-.89,2.22-1.71,3.35-2.53,1.13-.81,2.28-1.61,3.44-2.4,1.14-.79,2.31-1.55,3.46-2.31-1.21.67-2.41,1.37-3.59,2.11-1.19.74-2.37,1.5-3.52,2.28-1.16.78-2.29,1.61-3.4,2.48-.95.75-1.9,1.54-2.82,2.39.05-.56.11-1.11.18-1.67.24-2.01.61-4.01,1.03-6,1.15-.83,2.28-1.63,3.44-2.41,1.2-.81,2.39-1.58,3.6-2.35,2.39-1.53,4.84-2.97,7.26-4.39-2.51,1.24-5,2.6-7.44,4.06-1.24.72-2.44,1.5-3.64,2.29-1.03.67-2.03,1.36-3.05,2.07.5-2.36,1.12-4.7,1.76-7.03l.14-.5c.97-.61,1.93-1.21,2.91-1.79,1.03-.61,2.06-1.21,3.09-1.82,2.06-1.2,4.12-2.36,6.19-3.53-2.15.98-4.26,2.05-6.35,3.18-1.06.55-2.09,1.16-3.13,1.76-.84.49-1.68.98-2.5,1.49.69-2.47,1.45-4.93,2.26-7.36,1.62-.92,3.26-1.8,4.88-2.69,1.67-.91,3.34-1.81,4.99-2.74-1.73.74-3.44,1.55-5.14,2.38-1.51.74-3,1.53-4.49,2.34.47-1.38.94-2.77,1.44-4.14l1.11-3.1c.96-.5,1.94-.99,2.89-1.52l1.46-.8c.48-.28.97-.55,1.44-.85-.52.19-1.02.41-1.53.61l-1.51.67c-.83.37-1.66.78-2.48,1.19l1.06-2.82c.82-2.21,1.66-4.41,2.5-6.6-.92,2.17-1.83,4.34-2.73,6.52l-1.16,2.93c-.35-.88-.7-1.76-1.08-2.64-.43-.99-.85-1.98-1.33-2.95.29,1.07.62,2.1.98,3.13.35,1.03.73,2.04,1.12,3.05l.04.11-1.13,2.96c-.52,1.41-1.03,2.84-1.52,4.26-.7-1.62-1.4-3.24-2.1-4.86l-1.14-2.66-1.16-2.65c.3.94.62,1.85.94,2.77l1.01,2.73c.69,1.82,1.42,3.59,2.19,5.35v.03c-.82,2.43-1.6,4.89-2.31,7.36-.47-.93-.93-1.86-1.37-2.8-.52-1.11-1.04-2.22-1.55-3.32-.52-1.11-1.03-2.23-1.52-3.36-.51-1.12-1.01-2.25-1.52-3.37.4,1.18.85,2.34,1.29,3.5.45,1.15.93,2.3,1.4,3.43.46,1.14.99,2.25,1.49,3.36.5,1.1,1.04,2.2,1.57,3.28l-.11.37c-.63,2.39-1.24,4.78-1.74,7.2-.65-1.12-1.31-2.26-1.92-3.41-.71-1.3-1.39-2.63-2.07-3.95-.69-1.33-1.34-2.67-1.99-4.03-.67-1.35-1.29-2.71-1.94-4.08.55,1.44,1.12,2.83,1.72,4.23.61,1.39,1.22,2.76,1.87,4.11.63,1.36,1.33,2.68,2.01,3.99.69,1.31,1.42,2.6,2.14,3.86l.02.03c-.4,1.95-.74,3.92-.96,5.91-.07.61-.11,1.21-.16,1.82-.81-1.04-1.58-2.13-2.33-3.26-.82-1.24-1.59-2.54-2.36-3.84-.77-1.3-1.51-2.61-2.23-3.93-.75-1.32-1.45-2.65-2.16-3.99.62,1.41,1.28,2.78,1.96,4.15.68,1.35,1.39,2.69,2.12,4.03.72,1.34,1.51,2.64,2.33,3.9.81,1.26,1.67,2.48,2.58,3.62l.07.09c-.11,2.4,0,4.81.46,7.17-.27-.12-1.38-.55-2.87-1.65-1.48-1.09-3.3-2.89-4.86-5.54-1.56-2.62-2.79-6.06-3.28-9.83-.5-3.7-.34-7.89.95-12.33,1.32-4.54,3.59-8.46,6.17-11.73,2.58-3.27,5.49-5.88,8.18-7.94,2.7-2.05,5.2-3.55,7.02-4.55,1.82-1,2.97-1.49,2.97-1.49Z"/>
              <path class="cls-1" d="m86.36,345.27c-.91-1.14-1.77-2.36-2.58-3.62-.81-1.26-1.6-2.56-2.33-3.9-.73-1.33-1.44-2.68-2.12-4.03-.68-1.37-1.34-2.74-1.96-4.15.72,1.34,1.42,2.68,2.16,3.99.72,1.32,1.46,2.62,2.23,3.93.77,1.29,1.54,2.59,2.36,3.84.74,1.13,1.52,2.22,2.33,3.26.04-.61.09-1.21.16-1.82.22-1.98.57-3.95.96-5.91l-.02-.03c-.72-1.26-1.45-2.55-2.14-3.86-.68-1.31-1.38-2.63-2.01-3.99-.65-1.36-1.26-2.73-1.87-4.11-.6-1.4-1.17-2.79-1.72-4.23.65,1.37,1.27,2.74,1.94,4.08.65,1.36,1.3,2.7,1.99,4.03.68,1.32,1.36,2.65,2.07,3.95.61,1.15,1.28,2.3,1.92,3.41.5-2.42,1.1-4.81,1.74-7.2l.11-.37c-.53-1.08-1.07-2.18-1.57-3.28-.5-1.11-1.03-2.23-1.49-3.36-.47-1.14-.95-2.29-1.4-3.43-.44-1.16-.89-2.33-1.29-3.5.51,1.12,1.01,2.25,1.52,3.37.49,1.12,1,2.25,1.52,3.36.52,1.11,1.03,2.22,1.55,3.32.44.94.9,1.88,1.37,2.8.71-2.47,1.49-4.93,2.32-7.36v-.03c-.79-1.76-1.52-3.54-2.21-5.35l-1.01-2.73c-.31-.92-.64-1.84-.94-2.77l1.16,2.65,1.14,2.66c.7,1.62,1.4,3.24,2.1,4.86.49-1.43,1-2.85,1.52-4.26l1.13-2.96-.04-.11c-.4-1.01-.78-2.02-1.12-3.05-.36-1.03-.69-2.07-.98-3.13.48.97.9,1.96,1.33,2.95.38.87.73,1.76,1.08,2.64l1.16-2.93c.89-2.18,1.81-4.35,2.73-6.52-.84,2.2-1.69,4.4-2.5,6.6l-1.06,2.82c.83-.41,1.65-.81,2.48-1.19l1.51-.67c.51-.2,1.02-.42,1.53-.61-.47.3-.96.56-1.44.85l-1.46.8c-.95.52-1.92,1.02-2.89,1.52l-1.11,3.1c-.5,1.37-.97,2.76-1.44,4.14,1.49-.81,2.98-1.6,4.49-2.34,1.7-.84,3.41-1.65,5.14-2.38-1.65.93-3.32,1.83-4.99,2.74-1.62.9-3.26,1.78-4.88,2.69-.81,2.44-1.57,4.89-2.26,7.36.83-.51,1.66-1,2.5-1.49,1.04-.6,2.07-1.2,3.13-1.76,2.09-1.13,4.21-2.2,6.35-3.18-2.06,1.17-4.13,2.33-6.19,3.53-1.03.61-2.06,1.21-3.09,1.82-.98.58-1.94,1.18-2.91,1.79l-.14.5c-.64,2.33-1.26,4.67-1.76,7.03,1.02-.71,2.02-1.4,3.05-2.07,1.2-.79,2.41-1.57,3.64-2.29,2.44-1.46,4.93-2.82,7.44-4.06-2.41,1.42-4.86,2.86-7.26,4.39-1.21.77-2.4,1.54-3.6,2.35-1.16.78-2.29,1.58-3.44,2.41-.42,1.99-.79,3.98-1.03,6-.07.56-.13,1.11-.18,1.67.92-.85,1.86-1.64,2.82-2.39,1.12-.87,2.24-1.7,3.4-2.48,1.15-.78,2.33-1.55,3.52-2.28,1.18-.74,2.38-1.44,3.59-2.11-1.16.76-2.32,1.52-3.46,2.31-1.16.79-2.3,1.59-3.44,2.4-1.13.82-2.25,1.64-3.35,2.53-1.08.87-2.13,1.79-3.15,2.79-.17,2.42-.12,4.86.27,7.26-.04.03-.06.06-.06.06,0,0-.03-.01-.08-.03-.46-2.36-.57-4.77-.46-7.17l-.07-.09Z"/>
            </g>
          </g>
          <ellipse class="cls-4" cx="223.22" cy="355.24" rx="213.19" ry="17.45"/>
          <g>
            <path class="cls-21" d="m206.02,74.63h-23.03c.88,3.48-1.85,6.54-2.95,9.78-.86,2.55-1.16,5.33-.46,7.94.76,2.88,2.87,5.49,5.81,6.89,3.85,1.83,9.31,1.57,13.48.97,5.03-.73,9.35-3.21,10.58-7.86.69-2.61.4-5.39-.46-7.94-1.09-3.24-3.83-6.29-2.96-9.78Z"/>
            <path class="cls-1" d="m210.35,87.23c-2.04-3.2-8.73-4.38-11.84-4.76v-.02h-.25c-.85-.11-1.38-.14-1.38-.14l-1.68.05-1.68-.05s-.53.03-1.38.13h-.25v.03c-3.11.38-9.8,1.56-11.84,4.76-1.54,2.42,1.78,15.58,2.86,26.39.8,8.08-.7,14.85-.7,14.85h25.98s-1.37-7.82-.52-16.69c.99-10.42,4.13-22.28,2.68-24.56Z"/>
            <g>
              <path class="cls-21" d="m199.05,108.26l-4.78.03c-.81,0-1.48-.65-1.49-1.46l-.14-10.47c-.01-.82.65-1.49,1.47-1.5l4.78-.03c.81,0,1.48.65,1.49,1.46l.14,10.47c.01.82-.65,1.49-1.47,1.5Z"/>
              <path class="cls-26" d="m200.45,101.79c-.17-.19-.47-.21-.67-.03,0,0-1.71,1.4-1.73,1.35-.02-.04,2.31-2.27,2.31-2.27.19-.17.21-.47.03-.67-.17-.19-.47-.21-.67-.03,0,0-2.38,2.03-2.41,1.99-.04-.05,2.35-2.38,2.35-2.38.19-.17.21-.47.03-.67-.17-.19-.47-.21-.67-.03,0,0-2.56,2.19-2.59,2.16-.04-.04,2.03-2.03,2.03-2.03.19-.17.21-.47.03-.67-.17-.19-.47-.21-.67-.03l-2.23,2.01s-2.31,2.05-2.89,1.76v-.68c-.55.07-.92.5-1.08,1-.13.41-.1.83-.02,1.25.06.34.01.68.05,1.03.04.32.13.63.24.92-.07.05-7.4,3.67-14.27,7.44,2.76-8.43,9.55-20.15,9.55-20.15.52-1.27.53-2.7,0-3.98-1.11-2.72-4.22-4-6.92-2.85l-.42.18c-1.52.65-2.65,1.98-3.04,3.58,0,0-8.53,21.93-7.18,29.36.08.44.21.91.39,1.41,6.17,3.25,23.46-12.67,23.66-12.87,2.49-1.24,3.88-2.6,4.94-3.8l1.8-1.62c.19-.17.21-.47.03-.67Z"/>
              <path class="cls-1" d="m181.89,105.54c3.39-7.17,7.04-13.48,7.04-13.48.62-1.51.81-7.67.2-9.18,0,0-5.56.37-8.53,1.39-1.85.64-3.51,2.25-3.97,4.15,0,0-2.22,5.7-4.41,12.67,2.89,2.28,6.19,3.59,9.68,4.44Z"/>
            </g>
            <g>
              <path class="cls-26" d="m194.63,91.94c-2.68.12-5.44-5.17-5.44-8.55,0-6.39,10.42-6.74,10.42-.21,0,3.11-2.45,8.65-4.98,8.76Z"/>
              <path class="cls-26" d="m203.67,74.88c0,2.87-.84,5.49-2.23,7.49-1.68,2.42-5.44,3.88-6.91,3.95-1.26,0-5.32-1.59-7-4.09-1.34-1.99-2.14-4.56-2.14-7.36,0-6.32,4.09-8.93,9.14-8.93s9.14,2.61,9.14,8.93Z"/>
            </g>
            <path class="cls-21" d="m206.53,72.69c0-.12,0-.24,0-.36-.09-1.8-.71-3.66-1.47-5.28-.72-1.55-1.75-2.98-3.11-4.03-2.87-2.23-7.09-2.21-10.51-1.26-2,.56-3.9,1.61-5.31,3.19-.71.79-1.28,1.69-1.75,2.64-.51,1.04-.86,2.14-1.54,3.11-2.28,3.26,0,5.96,1.95,6.77.13.89.84,3.02,2.46,4.37-1.31-2.39-1.19-3.52-1.15-4.04.63-.03,1.25-.15,1.85-.33.17-.05,1.22-.43,1.85-.74,0,0,6.15,6.06,12.85,2.66,2.33-1.19,3.87-4.14,3.88-6.69Z"/>
          </g>
          <g class="cls-12">
            <path class="cls-28" d="m170.19,228.45l17.33-2.41c-18.99,2.64-36.7,11.26-51.09,25.1-2.84,2.73-6.29,4.33-9.85,4.83l-17.33,2.41c3.56-.49,7-2.09,9.85-4.83,14.38-13.84,32.09-22.46,51.09-25.1Z"/>
            <path class="cls-28" d="m161.38,158.18l17.33-2.41c-31.15,4.33-60.18,18.5-83.73,41.26-2.84,2.75-6.3,4.35-9.87,4.85l-17.33,2.41c3.57-.5,7.02-2.1,9.87-4.85,23.55-22.75,52.58-36.93,83.73-41.26Z"/>
            <path class="cls-25" d="m178.88,260.7l17.33-2.41c2.49-.35,5.04-.46,7.64-.33l-17.33,2.41c-2.6-.13-5.15-.02-7.64.33Z"/>
            <path class="cls-25" d="m164.74,189.68l17.33-2.41c7.87-1.09,15.9-1.45,24.02-1.03l-17.33,2.41c-8.11-.42-16.14-.07-24.02,1.03Z"/>
            <path class="cls-25" d="m155.91,119.41l17.33-2.41c11.49-1.6,23.2-2.11,35.05-1.5l-17.33,2.41c-11.84-.61-23.56-.1-35.05,1.5Z"/>
            <ellipse class="cls-19" cx="185.12" cy="305.28" rx="42.46" ry="45.01" transform="translate(-40.25 28.38) rotate(-7.91)"/>
            <path class="cls-18" d="m208.7,347.46l-17.33,2.41c19.94-2.77,35.55-20.34,36.24-42.39.77-24.8-17.62-45.9-41.08-47.11l17.33-2.41c23.46,1.21,41.86,22.31,41.08,47.11-.69,22.05-16.3,39.62-36.24,42.39Z"/>
            <path class="cls-18" d="m288.5,265.32l-17.33,2.41c3.56-.5,7.01-2.1,9.85-4.83,7.48-7.2,7.94-19.56,1-27.6-24.34-28.22-57.47-44.79-93.27-46.64l17.33-2.41c35.8,1.85,68.93,18.42,93.27,46.64,6.94,8.04,6.48,20.4-1,27.6-2.85,2.74-6.29,4.34-9.85,4.83Z"/>
            <path class="cls-19" d="m188.76,188.65c35.8,1.85,68.93,18.42,93.27,46.64,6.94,8.04,6.48,20.4-1,27.6-3.72,3.58-8.47,5.22-13.17,4.98-4.76-.25-9.46-2.43-12.95-6.48-17.58-20.39-41.5-32.35-67.36-33.69-25.44-1.32-49.74,7.86-68.43,25.84-3.72,3.58-8.47,5.21-13.16,4.97-4.76-.25-9.46-2.43-12.95-6.47-6.94-8.04-6.48-20.4,1-27.61,25.88-24.9,59.53-37.61,94.76-35.78Z"/>
            <path class="cls-18" d="m333.23,215.68l-17.33,2.41c3.57-.5,7.02-2.1,9.86-4.85,7.48-7.22,7.9-19.58.96-27.61-35.48-40.97-83.69-65.02-135.75-67.71l17.33-2.41c52.07,2.69,100.28,26.74,135.75,67.71,6.95,8.02,6.52,20.38-.96,27.61-2.84,2.75-6.29,4.35-9.86,4.85Z"/>
            <path class="cls-19" d="m190.96,117.92c52.07,2.69,100.28,26.74,135.75,67.71,6.95,8.02,6.52,20.38-.96,27.61-3.71,3.6-8.48,5.24-13.19,4.99-4.75-.25-9.43-2.41-12.93-6.45-28.72-33.17-67.74-52.64-109.9-54.82-41.7-2.16-81.52,12.92-112.09,42.47-3.72,3.59-8.48,5.24-13.19,4.99-4.75-.25-9.44-2.42-12.93-6.45-6.95-8.02-6.52-20.38.96-27.61,37.76-36.49,86.94-55.12,138.46-52.45Z"/>
          </g>
          <g>
            <g>
              <polygon class="cls-30" points="317.16 319.28 319.86 296.09 318.57 296.09 313.02 319.28 317.16 319.28"/>
              <polygon class="cls-30" points="317.16 319.28 293.97 319.28 293.97 317.99 317.16 315.14 317.16 319.28"/>
              <polygon class="cls-21" points="317.16 319.28 293.97 319.28 293.97 317.99 317.16 317.57 317.16 319.28"/>
              <polygon class="cls-21" points="317.16 319.28 319.86 296.09 318.57 296.09 315.45 319.28 317.16 319.28"/>
            </g>
            <g>
              <g>
                <path class="cls-7" d="m341.07,345.24c-28.58,5.22-45.74.44-45.74.44-12.22,1.61-29.48,2.59-29.48,2.59-12.14,9.01-20.57-3.36-20.57-3.36l2.29-15.49s20.76-4.42,53.04,6.85l40.89,5.14-.43,3.84Z"/>
                <g>
                  <polygon class="cls-26" points="341.09 345.19 346.77 345.13 346.42 342.17 341.5 341.39 341.09 345.19"/>
                  <path class="cls-21" d="m346.77,345.13h0c1.83.88,2.94,1.24,4.38-.18l4.99-6.46c.67-.86-.09-2.17-1.15-1.91,0,0-.02,0-.02,0h0c-.42.11-8.55,5.58-8.55,5.58l.35,2.96Z"/>
                </g>
              </g>
              <path class="cls-26" d="m303.03,308.73c-.67-.61-1.42-1.24-2.34-1.4-1.39-.23-4.65.49-4.73.58-2.32.41-20.22,3.54-23.76,2.85-6.25-2.03-19.24-17.89-19.24-17.89-.94-.88-2.19-1.35-3.48-1.31-2.74.08-4.89,2.38-4.77,5.12l.02.42c.07,1.54.86,2.97,2.13,3.84,0,0,16.37,14.66,23.32,15.92,6.01,1.09,23.23-5.15,26.68-6.46.55.74.51,1.72,1.37,1.94.57.14,1.22.13,1.85.04.17.17.37.3.61.35.91.22,1.64.16,2.53-.12.06.98,0,1.52.18,2.4.17.84,1.13,1.09,1.14.46-.05-2.37.39-5-1.52-6.74Z"/>
              <path class="cls-1" d="m244.98,294.63c-5.08,6.64-11.53,19.71-6.14,39.61l19.97-1.29s-3.03-9.49-2.74-16.5c12.12-6.62,3.17-8.47,2.73-21.24-3.26-4.6-10.4-5.06-13.82-.58Z"/>
              <g>
                <path class="cls-26" d="m269.65,317.97c-5.81-3.07-15.89-20.92-15.89-20.92-.78-1.02-1.93-1.7-3.2-1.89h0c-2.71-.39-5.22,1.51-5.57,4.23l-.05.42c-.2,1.53.34,3.07,1.45,4.15,0,0,13.62,17.25,20.25,19.67,6.42,2.35,27.3-1.89,27.3-1.89l-.13-2.52s-20.55.13-24.15-1.26Z"/>
                <path class="cls-1" d="m258.07,304.14c-2.51-3.9-4.31-7.08-4.31-7.08-.78-1.02-1.93-1.7-3.2-1.89-2.71-.39-5.22,1.51-5.57,4.23l-.05.42c-.2,1.53.34,3.07,1.45,4.15,0,0,1.71,2.17,4.22,5.07,2.98-.86,5.43-2.66,7.47-4.89Z"/>
                <path class="cls-26" d="m305.12,320.36c-2.99-.79-4.94,1.98-11.2,1.38l-.13-2.52h11.32c.2.2.53.69,0,1.13Z"/>
              </g>
              <g>
                <g>
                  <path class="cls-26" d="m250.38,290.3s4.78-2.26,5.12-7.72l6.63,3.1s-3.35,2.43-3.31,9.52l-8.43-4.91Z"/>
                  <path class="cls-26" d="m260.42,288.06s.04.03.06.04c1.1.77,2.46,1.2,3.78.96,2.7-.5,4.55-3.21,6.52-7.04,3.59-7,.62-12.38-3.79-14.07-5.93-2.26-15.61-1.42-12.18,11.89.85,3.31,2.83,6.24,5.62,8.21Z"/>
                </g>
                <path class="cls-21" d="m276.78,271.86c-1.48-1.16-3.57-1.33-5.62-1.26,0-.13-.04-.27-.15-.39-3.12-3.32-6.93-5.13-11.51-3.97-4.39,1.11-7.69,3.87-8.39,8.38-.72,4.67-3.1,6.35-7.21,8.12-1.98.85-3.77,1.89-5.28,3.45-3.13,3.23-4.33,7.58-3.78,11.94-2.09,2.87-4.76,5.09-4.03,9.07.24,1.3.87,2.51,1.82,3.44.58.58,1.28,1.08,2.03,1.41,4.61,2.04,8.72-1.52,8.81-5.59.08-3.72,1.78-7.14,5.28-8.74,1.09-.5,2.28-.77,3.41-1.16,2.24-.76,4.11-2.37,5.43-4.33,1.48-2.2,1.45-4.56.83-7.07-.53-2.15-1.28-4.61-.04-6.66,1.02-1.7,2.69-2.54,4.54-2.97,3.5,3.15,11.04,5.49,14.63,1.22,1.32-1.57.81-3.69-.74-4.91Z"/>
                <path class="cls-26" d="m259.29,278.29c-.67-1.03-2.25-1.57-3.14-.53-1.11,1.31.31,2.87,2.14,2.85.18-.83.49-1.63,1-2.32Z"/>
              </g>
              <g>
                <path class="cls-21" d="m238.84,334.24s2.47,18.39,13.32,18.47c7.36.05,10.61-1.83,13.8-3.7,5.85-3.44,15.95-6.82,24-14.34,0,0,4.62,7.84,22.98,19.87l3.44-3.11s-17.37-24.3-22.69-27.85c-.27-.18-.57-.32-.89-.41-9.21-2.58-33.97,9.79-33.97,9.79l-19.97,1.29Z"/>
                <g>
                  <polygon class="cls-26" points="312.94 354.54 317.34 358.05 319.38 355.79 316.37 351.42 312.94 354.54"/>
                  <path class="cls-21" d="m317.34,358.05h0c.69,1.91,2.5,3.18,4.53,3.18h0c.24,0,.47-.1.63-.27l7.13-7.54c.59-.63.44-1.65-.32-2.07h0c-.38-.21-.84-.22-1.23-.03l-8.91,4.37-1.83,2.36Z"/>
                </g>
              </g>
            </g>
            <g>
              <path class="cls-13" d="m304.88,279.36h-21.89c-.9,0-1.64.73-1.64,1.64v14.28c0,.9.73,1.64,1.64,1.64h6.21c.59,0,1.13.31,1.42.82l1.35,2.33.55.96c.63,1.09,2.21,1.09,2.84,0l.55-.96,1.35-2.33c.29-.51.83-.82,1.42-.82h6.21c.9,0,1.64-.73,1.64-1.64v-14.28c0-.9-.73-1.64-1.64-1.64Z"/>
              <g>
                <rect class="cls-5" x="283.92" y="283.44" width="20.49" height="1.29" rx=".58" ry=".58"/>
                <rect class="cls-5" x="283.92" y="286.02" width="20.49" height="1.29" rx=".58" ry=".58"/>
                <rect class="cls-5" x="283.92" y="288.6" width="20.49" height="1.29" rx=".58" ry=".58"/>
                <rect class="cls-5" x="283.92" y="291.18" width="13.5" height="1.29" rx=".58" ry=".58"/>
              </g>
            </g>
          </g>
          <g>
            <g>
              <path class="cls-1" d="m151.86,300.88c-1.93-2.89-8.24-3.96-11.18-4.3v-.02h-.23c-.8-.1-1.3-.13-1.3-.13l-1.59.04-1.59-.04s-.5.03-1.3.12h-.23v.03c-2.94.35-9.25,1.41-11.18,4.3-1.46,2.18,1.68,14.07,2.7,23.83.76,7.3-.66,13.41-.66,13.41h24.53s-1.29-7.06-.49-15.07c.94-9.41,3.9-20.12,2.53-22.18Z"/>
              <g>
                <g>
                  <g>
                    <path class="cls-9" d="m166.61,353.95h-7.98c-1.95,0-3.4-1.17-3.4-3.11h0c0-1.95,1.58-3.15,3.53-3.15l7.37.06c1.95,0,3.97,1.13,3.97,3.08h0c0,1.95-1.55,3.11-3.5,3.11Z"/>
                    <path class="cls-21" d="m158.57,353.97c-1.91,0-3.43-1.39-3.43-3.13s1.41-3.13,3.37-3.13l7.63.25c1.86,0,3.77,1.08,3.77,2.88s-1.32,2.91-3.29,2.91l-8.04.22Z"/>
                  </g>
                  <path class="cls-29" d="m166.32,347.97v5.78h.29c1.97,0,3.29-1.17,3.29-2.91s-1.79-2.79-3.58-2.87Z"/>
                  <g>
                    <g>
                      <g>
                        <circle class="cls-9" cx="161.59" cy="348.8" r=".4"/>
                        <path class="cls-9" d="m162.86,348.8c0-.22.18-.4.4-.4s.4.18.4.4-.18.4-.4.4-.4-.18-.4-.4Z"/>
                        <path class="cls-9" d="m164.53,348.8c0-.22.18-.4.4-.4s.4.18.4.4-.18.4-.4.4-.4-.18-.4-.4Z"/>
                      </g>
                      <g>
                        <circle class="cls-9" cx="161.59" cy="352.72" r=".4"/>
                        <path class="cls-9" d="m162.86,352.72c0-.22.18-.4.4-.4s.4.18.4.4-.18.4-.4.4-.4-.18-.4-.4Z"/>
                        <path class="cls-9" d="m164.53,352.72c0-.22.18-.4.4-.4s.4.18.4.4-.18.4-.4.4-.4-.18-.4-.4Z"/>
                      </g>
                    </g>
                    <g>
                      <g>
                        <polygon class="cls-15" points="163.49 352.81 163.07 352.81 161.38 348.66 161.8 348.66 163.49 352.81"/>
                        <polygon class="cls-15" points="165.19 352.81 164.77 352.81 163.07 348.66 163.5 348.66 165.19 352.81"/>
                      </g>
                      <g>
                        <rect class="cls-29" x="161.38" y="348.66" width=".42" height="4.15"/>
                        <rect class="cls-29" x="163.07" y="348.66" width=".42" height="4.15"/>
                        <rect class="cls-29" x="164.77" y="348.66" width=".42" height="4.15"/>
                      </g>
                    </g>
                  </g>
                </g>
                <g>
                  <path class="cls-21" d="m148.05,352.74v-7.88s-27.59-17.12-46.76-13.65c-1.2.22-2.25.94-2.9,1.97h0c-1,1.59-.91,3.65.29,5.1,3.76,4.54,15.31,13.07,49.38,14.46Z"/>
                  <path class="cls-26" d="m151.1,346.64l7.23,2.36c.8.26,1.35,1.01,1.35,1.86h0c0,1.08-.87,1.95-1.95,1.95h-6.5l-.13-6.17Z"/>
                  <rect class="cls-10" x="147.92" y="344.23" width="3.33" height="9.92"/>
                </g>
              </g>
              <g>
                <g>
                  <g>
                    <path class="cls-9" d="m105.97,358.86l7.89-1.2c1.93-.29,3.19-1.66,2.89-3.59h0c-.29-1.93-2.03-2.87-3.96-2.58l-7.28,1.17c-1.93.29-3.76,1.72-3.47,3.64h0c.29,1.93,2,2.85,3.92,2.55Z"/>
                    <path class="cls-21" d="m113.92,357.67c1.89-.29,3.19-1.89,2.92-3.61-.26-1.71-1.86-2.88-3.8-2.59l-7.5,1.39c-1.83.28-3.57,1.63-3.3,3.41.26,1.72,1.74,2.68,3.69,2.38l7.98-.99Z"/>
                  </g>
                  <path class="cls-29" d="m105.36,352.91l.87,5.71-.28.04c-1.95.3-3.43-.66-3.69-2.38-.26-1.72,1.35-3.03,3.11-3.37Z"/>
                  <g>
                    <g>
                      <g>
                        <path class="cls-9" d="m110.56,352.96c-.03-.22-.24-.37-.46-.34s-.37.24-.34.46.24.37.46.34.37-.24.34-.46Z"/>
                        <path class="cls-9" d="m108.91,353.21c-.03-.22-.24-.37-.46-.34-.22.03-.37.24-.34.46.03.22.24.37.46.34.22-.03.37-.24.34-.46Z"/>
                        <path class="cls-9" d="m107.25,353.46c-.03-.22-.24-.37-.46-.34-.22.03-.37.24-.34.46s.24.37.46.34c.22-.03.37-.24.34-.46Z"/>
                      </g>
                      <g>
                        <path class="cls-9" d="m111.15,356.83c-.03-.22-.24-.37-.46-.34-.22.03-.37.24-.34.46s.24.37.46.34c.22-.03.37-.24.34-.46Z"/>
                        <path class="cls-9" d="m109.49,357.08c-.03-.22-.24-.37-.46-.34s-.37.24-.34.46c.03.22.24.37.46.34.22-.03.37-.24.34-.46Z"/>
                        <path class="cls-9" d="m107.84,357.34c-.03-.22-.24-.37-.46-.34-.22.03-.37.24-.34.46.03.22.24.37.46.34s.37-.24.34-.46Z"/>
                      </g>
                    </g>
                    <g>
                      <g>
                        <polygon class="cls-15" points="108.88 357.26 109.3 357.2 110.35 352.84 109.93 352.9 108.88 357.26"/>
                        <polygon class="cls-15" points="107.2 357.52 107.62 357.45 108.67 353.09 108.25 353.16 107.2 357.52"/>
                      </g>
                      <g>
                        <rect class="cls-29" x="110.24" y="352.85" width=".42" height="4.15" transform="translate(272.89 689.27) rotate(171.37)"/>
                        <rect class="cls-29" x="108.57" y="353.1" width=".42" height="4.15" transform="translate(269.6 690.02) rotate(171.37)"/>
                        <rect class="cls-29" x="106.89" y="353.36" width=".42" height="4.15" transform="translate(266.3 690.78) rotate(171.37)"/>
                      </g>
                    </g>
                  </g>
                </g>
                <g>
                  <path class="cls-21" d="m124.14,354.88l-1.18-7.79s24.71-21.07,44.19-20.51c1.22.03,2.37.59,3.17,1.52h0c1.23,1.42,1.45,3.47.48,5.08-3.04,5.05-13.18,15.22-46.65,21.7Z"/>
                  <path class="cls-26" d="m120.21,349.31l-6.8,3.42c-.76.38-1.18,1.2-1.05,2.04h0c.16,1.07,1.16,1.8,2.22,1.64l6.43-.98-.8-6.11Z"/>
                  <rect class="cls-10" x="120.42" y="346.64" width="3.33" height="9.92" transform="translate(295.52 680.9) rotate(171.37)"/>
                </g>
              </g>
              <g>
                <path class="cls-21" d="m141.12,320.94l-4.37.02c-.81,0-1.47-.64-1.48-1.45l-.13-9.74c-.01-.82.65-1.49,1.46-1.49l4.37-.02c.81,0,1.47.64,1.48,1.45l.13,9.74c.01.82-.65,1.49-1.46,1.49Z"/>
                <path class="cls-26" d="m142.51,314.83c-.16-.18-.45-.2-.63-.03,0,0-1.61,1.32-1.64,1.27-.02-.04,2.18-2.15,2.18-2.15.18-.16.2-.45.03-.63-.16-.18-.45-.2-.63-.03,0,0-2.25,1.91-2.28,1.88-.04-.05,2.22-2.25,2.22-2.25.18-.16.2-.45.03-.63-.16-.18-.45-.2-.63-.03,0,0-2.42,2.07-2.45,2.04-.04-.03,1.91-1.92,1.91-1.92.18-.16.2-.45.03-.63-.16-.18-.45-.2-.63-.03l-2.11,1.9s-2.18,1.94-2.73,1.66v-.64c-.52.07-.87.47-1.02.94-.12.39-.09.79-.02,1.18.06.32.01.65.05.97.04.3.12.59.23.87-.07.04-6.99,3.47-13.48,7.02,2.6-7.96,9.01-19.02,9.01-19.02.49-1.2.5-2.55,0-3.75-1.04-2.56-3.99-3.78-6.53-2.69l-.39.17c-1.44.61-2.5,1.87-2.87,3.38,0,0-8.05,20.7-6.77,27.72.08.41.2.86.37,1.33,5.82,3.07,22.15-11.96,22.33-12.15,2.35-1.17,3.67-2.45,4.66-3.59l1.7-1.53c.18-.16.2-.45.03-.63Z"/>
                <path class="cls-1" d="m124.99,318.37c3.2-6.77,6.65-12.73,6.65-12.73.59-1.43.77-7.24.19-8.67,0,0-5.25.35-8.05,1.31-1.75.6-3.31,2.12-3.75,3.92,0,0-2.09,5.38-4.17,11.96,2.73,2.16,5.84,3.39,9.14,4.19Z"/>
              </g>
              <g>
                <path class="cls-16" d="m154.12,303.68c-.37-1.52-1.43-2.77-2.87-3.38l-.39-.17c-2.55-1.09-5.49.13-6.53,2.69-.49,1.2-.49,2.55,0,3.75,0,0,10.39,17.93,10.09,24.56-.16,1.02-14.4,9.08-17.59,10.88-.29-.31-.64-.61-1-.77-1.14-.51-1.96-1.83-2.32-2.28-.13-.16-.34.17-.39.35-.14.53.44,1.47.43,1.95-.02.66-2.99,1.66-2.98,1.71l-2.88,1.02c-.25.09-.38.36-.29.61.09.25.36.38.61.29,0,0,2.79-.88,2.8-.83.01.04-3.19,1.27-3.19,1.27-.25.09-.38.36-.29.61.09.25.36.38.61.29,0,0,3.24-1.01,3.27-.95.02.04-2.95,1.19-2.95,1.19-.25.09-.38.36-.29.61.09.25.36.38.61.29,0,0,3.13-1.01,3.15-.96.03.05-2.05.9-2.05.9-.25.09-.38.36-.29.61.09.25.36.38.61.29l2.32-.82s0,0,0,0c1.51-.35,3.31-.91,5.49-2.38.44-.14,21.83-7.25,23.08-13.63,1.37-7-6.77-27.72-6.77-27.72Z"/>
                <path class="cls-1" d="m149.32,318.37c-3.2-6.77-6.65-12.73-6.65-12.73-.59-1.43-.77-7.24-.19-8.67,0,0,5.25.35,8.05,1.31,1.75.6,3.31,2.12,3.75,3.92,0,0,2.09,5.38,4.17,11.96-2.73,2.16-5.84,3.39-9.14,4.19Z"/>
              </g>
              <g>
                <path class="cls-26" d="m137.02,305.53c-2.53.11-5.14-4.88-5.14-8.07,0-6.03,9.84-6.36,9.84-.2,0,2.94-2.32,8.17-4.7,8.27Z"/>
                <path class="cls-26" d="m145.56,289.42c0,2.71-.79,5.18-2.11,7.08-1.58,2.28-5.14,3.66-6.52,3.73-1.19,0-5.03-1.5-6.61-3.86-1.26-1.88-2.02-4.3-2.02-6.95,0-5.97,3.86-8.43,8.63-8.43s8.63,2.47,8.63,8.43Z"/>
              </g>
              <path class="cls-21" d="m147.3,286.6c.04-.35.09-.7.1-1.05.03-1.19-.13-2.37-.55-3.52-.56-1.52-1.58-2.89-2.92-3.81-2.84-1.93-6.7-2.09-9.92-1.19-1.88.53-3.68,1.52-5.02,3.01-.67.75-1.21,1.59-1.65,2.49-.48.98-.69,2.12-1.46,2.94-.48.52-1.44.71-1.75,1.35-.96,1.98,1.74,4.28,3.58,5.04.12.84.79,2.85,2.33,4.13-1.24-2.26-1.12-3.32-1.09-3.81.59-.03,1.18-.14,1.75-.31.16-.05,1.16-.4,1.74-.7.58.57,1.31.97,2.1,1.21.11.04.23.07.34.1.38.09.76.16,1.14.19,1.24.11,2.45-.21,3.62-.63.82-.29,1.02-.45,1.81-.79,1.28-.57,2.11-.52,3.5-.7.14-.02.29-.04.44-.07-.11,1.38-.53,3.25-1.04,4.53.26.11,1.44-2.94,1.53-3.16.22-.55.42-1.12.6-1.69.81-.32,1.54-.85,1.72-1.71.18-.82-.3-1.38-.92-1.85Z"/>
            </g>
            <g>
              <path class="cls-13" d="m148.79,247.58h-23.72c-.98,0-1.77.79-1.77,1.77v15.48c0,.98.79,1.77,1.77,1.77h6.73c.63,0,1.22.34,1.54.89l1.46,2.53.6,1.04c.68,1.18,2.39,1.18,3.07,0l.6-1.04,1.46-2.53c.32-.55.9-.89,1.54-.89h6.73c.98,0,1.77-.79,1.77-1.77v-15.48c0-.98-.79-1.77-1.77-1.77Z"/>
              <g>
                <rect class="cls-5" x="126.08" y="252" width="22.2" height="1.4" rx=".58" ry=".58"/>
                <rect class="cls-5" x="126.08" y="254.79" width="22.2" height="1.4" rx=".58" ry=".58"/>
                <rect class="cls-5" x="126.08" y="257.59" width="22.2" height="1.4" rx=".58" ry=".58"/>
                <rect class="cls-5" x="126.08" y="260.38" width="14.63" height="1.4" rx=".58" ry=".58"/>
              </g>
            </g>
          </g>
          <g>
            <path class="cls-26" d="m216.77,101.52c-2.45,1.8-5.18,2.95-8.06,3.74,2.38,5.14,4.49,10.65,4.35,13.78-.17,1.08-15.25,9.62-18.63,11.52-.31-.33-.68-.65-1.06-.82-1.21-.54-2.08-1.94-2.46-2.42-.13-.17-.36.18-.41.37-.15.56.47,1.56.45,2.06-.02.7-3.16,1.76-3.16,1.81l-3.05,1.08c-.26.09-.4.38-.31.65.09.26.38.4.65.31,0,0,2.95-.93,2.97-.87.01.05-3.38,1.35-3.38,1.35-.26.09-.4.38-.31.65.09.26.38.4.65.31,0,0,3.44-1.07,3.46-1,.02.05-3.13,1.26-3.13,1.26-.26.09-.4.38-.31.65.09.26.38.4.65.31,0,0,3.31-1.07,3.34-1.02.03.05-2.17.95-2.17.95-.26.09-.4.38-.31.65.09.26.38.4.65.31l2.46-.87s0,0,0,0c1.6-.37,3.5-.97,5.81-2.52.47-.15,23.12-7.68,24.45-14.44.74-3.78-1.13-11.32-3.15-17.81Z"/>
            <path class="cls-1" d="m217.34,101.1c-2.19-6.97-4.41-12.67-4.41-12.67-.47-1.91-2.12-3.51-3.97-4.15-2.97-1.03-8.04-1.1-8.04-1.1-.62,1.51-.91,7.38-.29,8.89,0,0,3.65,6.31,7.04,13.48.35-.09.7-.18,1.04-.27,2.88-.79,5.61-1.94,8.06-3.74.19-.14.39-.27.58-.42Z"/>
          </g>
          <g class="cls-11">
            <g>
              <path class="cls-22" d="m228.96,129.09s-1.64.22-4.35.85c-2.71.64-6.48,1.71-10.75,3.57-4.26,1.87-9.04,4.53-13.58,8.51-2.27,1.99-4.46,4.31-6.46,6.98-1.98,2.69-3.76,5.71-5.14,9.06-1.34,3.3-2.2,6.57-2.61,9.58-.42,3.02-.43,5.82-.19,8.38.5,5.11,1.99,9.25,3.67,12.56,1.69,3.31,3.57,5.82,5.09,7.6,1.52,1.77,2.68,2.81,2.98,3.07.39-3.3.79-6.61,1.26-9.9-.99-1.62-1.97-3.26-2.93-4.93-.96-1.71-1.93-3.43-2.81-5.24-1.79-3.59-3.42-7.39-4.71-11.52,1.54,3.94,3.27,7.65,5.13,11.17.94,1.75,1.89,3.49,2.87,5.18.85,1.46,1.71,2.89,2.6,4.31l.35-2.27c.46-2.74.98-5.48,1.6-8.19-.86-1.67-1.67-3.39-2.44-5.15-.79-1.83-1.54-3.7-2.19-5.66-1.31-3.91-2.31-8.07-2.98-12.36.45,2.06,1,4.13,1.55,6.13.6,2.03,1.19,4,1.9,5.92.71,1.91,1.45,3.79,2.25,5.6.69,1.54,1.4,3.04,2.16,4.5.78-3.22,1.69-6.41,2.84-9.52l.26-.66-.74-2.19c-.23-.74-.44-1.47-.66-2.23-.46-1.6-.85-3.19-1.2-4.86-.68-3.29-1.2-6.7-1.47-10.17.55,3.35,1.2,6.7,1.96,9.93.43,1.63.79,3.22,1.27,4.81.39,1.28.75,2.51,1.2,3.75,1.31-3.27,2.85-6.44,4.55-9.52-.51-2.44-.92-4.93-1.2-7.48-.15-1.3-.28-2.63-.37-3.94-.09-1.32-.17-2.67-.19-4,.17,1.3.34,2.6.51,3.9.17,1.29.35,2.58.55,3.87.18,1.13.35,2.26.56,3.4.2,1.13.39,2.23.63,3.35.98-1.74,2.02-3.45,3.1-5.14.83-1.26,1.65-2.52,2.52-3.74-.15-1.44-.28-2.9-.33-4.37-.03-.75-.06-1.51-.07-2.26.01-.76,0-1.51.04-2.29.12.73.2,1.47.3,2.2.08.73.16,1.47.25,2.21.13,1.22.27,2.44.4,3.66.79-1.12,1.61-2.23,2.42-3.33,1.94-2.57,3.96-5.06,6-7.54-1.96,2.54-3.9,5.1-5.75,7.72-.83,1.17-1.66,2.33-2.46,3.52,1.21-.32,2.45-.59,3.67-.83,1.38-.27,2.78-.5,4.17-.66-1.37.42-2.75.79-4.12,1.17-1.39.37-2.77.75-4.15,1.12l-.15.04c-.81,1.19-1.58,2.4-2.34,3.62-1.09,1.74-2.15,3.5-3.13,5.3,1.08-.4,2.2-.77,3.3-1.12,1.09-.35,2.2-.67,3.3-.96,1.19-.32,2.39-.61,3.6-.88,1.2-.25,2.39-.51,3.6-.7-1.19.34-2.37.66-3.55,1.02-1.2.33-2.37.69-3.56,1.07-2.38.75-4.76,1.55-7.13,2.45l-.05.02c-1.66,3.08-3.15,6.24-4.42,9.5,1.2-.64,2.46-1.22,3.68-1.77,1.42-.65,2.9-1.24,4.32-1.77,1.48-.52,2.9-1.01,4.37-1.44,1.47-.42,2.91-.82,4.39-1.14-1.45.46-2.86.93-4.31,1.45-1.43.5-2.87,1.04-4.3,1.62-1.41.6-2.88,1.18-4.28,1.86-.7.33-1.43.67-2.13,1.03l-2.1,1.12-.19.48c-1.18,3.13-2.13,6.35-2.94,9.61,1.41-1,2.83-1.95,4.26-2.84,1.62-.99,3.23-1.94,4.88-2.75,1.63-.82,3.32-1.54,4.95-2.21,1.7-.63,3.32-1.22,5.03-1.71-1.66.62-3.26,1.26-4.91,1.99-.8.36-1.62.73-2.44,1.12-.82.39-1.61.82-2.43,1.25-1.6.89-3.22,1.82-4.81,2.85-1.59,1.02-3.17,2.12-4.73,3.27l-.04.03c-.62,2.64-1.15,5.29-1.62,7.97l-.42,2.44c1.34-1.12,2.68-2.23,4.04-3.29,1.5-1.17,3-2.33,4.54-3.38,1.53-1.06,3.08-2.06,4.63-2.99,1.56-.91,3.13-1.76,4.72-2.49-1.52.85-3.06,1.75-4.56,2.76-1.53.98-3.03,2.04-4.53,3.16-1.5,1.12-3,2.27-4.48,3.47-1.48,1.2-2.96,2.44-4.42,3.7l-.11.09c-.52,3.22-.99,6.45-1.46,9.67.36-.17,1.75-.87,3.68-2.17,1.93-1.3,4.41-3.2,6.96-5.66,2.55-2.46,5.19-5.45,7.54-8.78,1.18-1.66,2.29-3.4,3.3-5.21,1-1.82,1.93-3.64,2.75-5.68.87-2.09,1.61-4.26,2.23-6.51.66-2.24,1.2-4.57,1.7-6.92.99-4.7,1.73-9.52,2.22-13.87.5-4.35.73-8.21.81-10.97.08-2.76,0-4.42,0-4.42Z"/>
              <path class="cls-1" d="m199.37,189.51c1.46-1.27,2.94-2.5,4.42-3.7,1.48-1.2,2.99-2.34,4.48-3.47,1.5-1.12,3.01-2.18,4.53-3.16,1.51-1.01,3.05-1.91,4.56-2.76-1.59.73-3.16,1.58-4.72,2.49-1.56.93-3.11,1.93-4.63,2.99-1.54,1.05-3.04,2.21-4.54,3.38-1.36,1.07-2.7,2.17-4.04,3.29l.42-2.44c.47-2.67.99-5.33,1.62-7.97l.04-.03c1.56-1.15,3.14-2.25,4.73-3.27,1.59-1.03,3.21-1.96,4.81-2.85.82-.43,1.61-.86,2.43-1.25.82-.39,1.63-.77,2.44-1.12,1.65-.73,3.25-1.38,4.91-1.99-1.71.48-3.33,1.08-5.03,1.71-1.63.66-3.32,1.39-4.95,2.21-1.65.81-3.26,1.76-4.88,2.75-1.43.89-2.85,1.84-4.26,2.84.81-3.25,1.76-6.47,2.94-9.61l.19-.48,2.1-1.12c.7-.36,1.43-.7,2.13-1.03,1.4-.68,2.87-1.26,4.28-1.86,1.43-.58,2.87-1.12,4.3-1.62,1.44-.52,2.86-.98,4.31-1.45-1.48.32-2.92.73-4.39,1.14-1.47.44-2.89.92-4.37,1.44-1.42.53-2.9,1.12-4.32,1.77-1.22.56-2.48,1.13-3.68,1.77,1.27-3.25,2.76-6.42,4.42-9.5l.05-.02c2.38-.91,4.76-1.7,7.13-2.45,1.19-.38,2.36-.74,3.56-1.07,1.18-.36,2.36-.68,3.55-1.02-1.21.19-2.41.45-3.6.7-1.21.27-2.4.57-3.6.88-1.11.29-2.21.61-3.3.96-1.1.35-2.21.71-3.3,1.12.99-1.8,2.04-3.56,3.13-5.3.76-1.22,1.53-2.43,2.34-3.62l.15-.04c1.38-.37,2.76-.74,4.15-1.12,1.37-.38,2.75-.75,4.12-1.17-1.39.15-2.79.38-4.17.66-1.22.23-2.46.51-3.67.83.8-1.19,1.63-2.35,2.46-3.52,1.85-2.62,3.79-5.18,5.75-7.72-2.05,2.48-4.07,4.98-6,7.54-.82,1.1-1.63,2.21-2.42,3.33-.13-1.22-.27-2.44-.4-3.66-.09-.74-.18-1.48-.25-2.21-.1-.73-.18-1.47-.3-2.2-.04.77-.03,1.53-.04,2.29.01.75.04,1.51.07,2.26.05,1.47.18,2.92.33,4.37-.87,1.23-1.7,2.48-2.52,3.74-1.08,1.69-2.12,3.4-3.1,5.14-.24-1.12-.43-2.22-.63-3.35-.21-1.13-.38-2.26-.56-3.4-.2-1.29-.39-2.58-.55-3.87-.17-1.3-.34-2.6-.51-3.9.02,1.34.09,2.68.19,4,.09,1.32.22,2.64.37,3.94.28,2.54.69,5.04,1.2,7.48-1.7,3.08-3.23,6.25-4.55,9.52-.45-1.24-.82-2.47-1.2-3.75-.48-1.58-.84-3.17-1.27-4.81-.76-3.23-1.41-6.58-1.96-9.93.27,3.46.79,6.88,1.47,10.17.35,1.67.74,3.26,1.2,4.86.21.75.43,1.49.66,2.23l.74,2.19-.26.66c-1.15,3.11-2.06,6.3-2.84,9.52-.75-1.47-1.47-2.96-2.16-4.5-.8-1.81-1.54-3.69-2.25-5.6-.71-1.93-1.3-3.89-1.9-5.92-.55-2-1.09-4.07-1.55-6.13.67,4.29,1.67,8.44,2.98,12.36.65,1.96,1.4,3.83,2.19,5.66.77,1.76,1.59,3.48,2.44,5.15-.62,2.71-1.15,5.45-1.6,8.19l-.35,2.27c-.88-1.42-1.75-2.85-2.6-4.31-.99-1.69-1.93-3.42-2.87-5.18-1.86-3.52-3.59-7.23-5.13-11.17,1.29,4.13,2.92,7.92,4.71,11.52.88,1.81,1.84,3.53,2.81,5.24.96,1.67,1.94,3.31,2.93,4.93-.48,3.29-.87,6.6-1.26,9.9.05.04.08.07.08.07,0,0,.04-.02.1-.05.47-3.23.94-6.46,1.46-9.67l.11-.09Z"/>
            </g>
            <g>
              <path class="cls-1" d="m165.38,126.96s-.71,1.74-1.62,4.73c-.92,2.98-2.03,7.22-2.9,12.14-.87,4.93-1.5,10.54-1.52,16.28-.01,5.75.6,11.62,2.24,17.27,1.6,5.51,3.9,10.01,6.55,13.77,2.6,3.67,5.42,6.41,8.07,8.9,2.63,2.45,5.1,4.65,6.96,6.41,1.85,1.75,3.14,2.99,3.49,3.29.59-3.61.66-7.28.41-10.92-1.53-1.5-3.11-2.88-4.73-4.19-1.65-1.33-3.34-2.57-5.03-3.8-1.7-1.22-3.42-2.42-5.17-3.61-1.72-1.18-3.47-2.34-5.21-3.47,1.81,1.01,3.63,2.07,5.4,3.17,1.79,1.11,3.56,2.26,5.3,3.44,1.75,1.17,3.44,2.42,5.12,3.73,1.44,1.13,2.86,2.32,4.24,3.6-.07-.84-.17-1.67-.27-2.51-.37-3.03-.92-6.03-1.55-9.02-1.74-1.25-3.43-2.46-5.18-3.63-1.8-1.21-3.6-2.37-5.42-3.53-3.6-2.3-7.28-4.47-10.91-6.61,3.77,1.86,7.52,3.91,11.19,6.1,1.86,1.08,3.67,2.25,5.48,3.44,1.55,1.01,3.06,2.05,4.59,3.12-.76-3.55-1.69-7.07-2.65-10.57l-.21-.75c-1.46-.92-2.9-1.82-4.37-2.7-1.55-.91-3.1-1.82-4.65-2.74-3.1-1.81-6.2-3.55-9.3-5.31,3.23,1.48,6.4,3.08,9.55,4.78,1.59.83,3.14,1.74,4.7,2.64,1.27.73,2.52,1.48,3.77,2.24-1.04-3.72-2.18-7.41-3.4-11.07-2.44-1.38-4.91-2.7-7.34-4.05-2.51-1.37-5.02-2.73-7.51-4.13,2.6,1.11,5.18,2.33,7.73,3.59,2.28,1.11,4.51,2.3,6.76,3.52-.71-2.08-1.42-4.16-2.17-6.23l-1.68-4.67c-1.45-.75-2.91-1.49-4.34-2.28l-2.2-1.21c-.72-.43-1.46-.83-2.17-1.27.78.28,1.54.61,2.31.92l2.28,1c1.25.56,2.5,1.17,3.74,1.79l-1.59-4.25c-1.23-3.32-2.49-6.63-3.76-9.93,1.38,3.26,2.76,6.52,4.1,9.8l1.75,4.4c.53-1.32,1.06-2.65,1.63-3.96.64-1.5,1.28-2.98,2-4.44-.43,1.6-.93,3.16-1.47,4.71-.52,1.56-1.09,3.07-1.69,4.59l-.06.16,1.69,4.45c.79,2.13,1.54,4.27,2.29,6.41,1.05-2.44,2.11-4.88,3.16-7.31l1.71-4.01,1.75-3.99c-.44,1.41-.94,2.79-1.41,4.17l-1.52,4.11c-1.04,2.73-2.14,5.4-3.3,8.05l-.02.05c1.25,3.66,2.42,7.35,3.49,11.07.71-1.39,1.4-2.8,2.06-4.22.78-1.67,1.56-3.33,2.33-5,.78-1.67,1.55-3.36,2.29-5.05.76-1.69,1.52-3.38,2.28-5.07-.61,1.77-1.29,3.52-1.95,5.27-.68,1.73-1.39,3.46-2.1,5.17-.7,1.71-1.49,3.39-2.25,5.06-.75,1.66-1.57,3.31-2.36,4.94l.16.55c.95,3.59,1.86,7.19,2.61,10.83.98-1.68,1.97-3.4,2.9-5.13,1.07-1.95,2.08-3.95,3.11-5.93,1.04-2,2.01-4.01,2.99-6.06,1-2.03,1.93-4.08,2.92-6.14-.83,2.16-1.69,4.25-2.59,6.36-.91,2.09-1.84,4.15-2.81,6.19-.94,2.04-2,4.03-3.03,6-1.04,1.97-2.13,3.91-3.22,5.8l-.03.04c.6,2.94,1.11,5.9,1.45,8.88.1.91.17,1.82.24,2.74,1.22-1.56,2.38-3.2,3.5-4.9,1.24-1.87,2.39-3.83,3.56-5.77,1.16-1.96,2.27-3.92,3.35-5.91,1.13-1.98,2.17-3.99,3.26-6.01-.93,2.12-1.92,4.19-2.94,6.25-1.03,2.03-2.09,4.05-3.19,6.06-1.09,2.01-2.28,3.96-3.5,5.87-1.22,1.9-2.51,3.73-3.88,5.45l-.1.13c.17,3.61,0,7.24-.69,10.78.41-.18,2.08-.83,4.31-2.48,2.22-1.64,4.97-4.35,7.31-8.33,2.34-3.94,4.19-9.12,4.94-14.79.75-5.57.51-11.87-1.43-18.55-1.98-6.83-5.4-12.73-9.27-17.64-3.89-4.91-8.25-8.85-12.31-11.94-4.06-3.09-7.82-5.34-10.56-6.85-2.74-1.5-4.47-2.25-4.47-2.25Z"/>
              <path class="cls-2" d="m187.66,198.87c1.37-1.72,2.66-3.55,3.88-5.45,1.22-1.9,2.41-3.85,3.5-5.87,1.1-2.01,2.16-4.03,3.19-6.06,1.02-2.06,2.01-4.12,2.94-6.25-1.08,2.02-2.13,4.03-3.26,6.01-1.09,1.99-2.2,3.95-3.35,5.91-1.16,1.95-2.32,3.9-3.56,5.77-1.12,1.7-2.28,3.34-3.5,4.9-.06-.91-.14-1.83-.24-2.74-.34-2.99-.85-5.95-1.45-8.88l.03-.04c1.08-1.9,2.18-3.84,3.22-5.8,1.03-1.97,2.08-3.96,3.03-6,.98-2.04,1.9-4.1,2.81-6.19.9-2.11,1.76-4.2,2.59-6.36-.98,2.06-1.92,4.11-2.92,6.14-.98,2.05-1.96,4.06-2.99,6.06-1.02,1.99-2.04,3.98-3.11,5.93-.92,1.73-1.92,3.45-2.9,5.13-.75-3.64-1.66-7.24-2.61-10.83l-.16-.55c.79-1.62,1.61-3.28,2.36-4.94.76-1.67,1.55-3.35,2.25-5.06.71-1.71,1.43-3.44,2.1-5.17.66-1.75,1.34-3.5,1.95-5.27-.76,1.69-1.52,3.38-2.28,5.07-.74,1.69-1.51,3.38-2.29,5.05-.78,1.66-1.56,3.33-2.33,5-.67,1.41-1.36,2.82-2.06,4.22-1.07-3.72-2.24-7.41-3.49-11.07l.02-.05c1.16-2.65,2.26-5.32,3.3-8.05l1.52-4.11c.47-1.39.96-2.76,1.41-4.17l-1.75,3.99-1.71,4.01c-1.05,2.43-2.1,4.87-3.16,7.31-.74-2.14-1.5-4.29-2.29-6.41l-1.69-4.45.06-.16c.6-1.52,1.17-3.03,1.69-4.59.53-1.55,1.04-3.11,1.47-4.71-.72,1.46-1.36,2.95-2,4.44-.57,1.31-1.1,2.64-1.63,3.96l-1.75-4.4c-1.34-3.28-2.72-6.54-4.1-9.8,1.27,3.31,2.54,6.61,3.76,9.93l1.59,4.25c-1.24-.62-2.48-1.22-3.74-1.79l-2.28-1c-.77-.31-1.53-.64-2.31-.92.71.45,1.45.84,2.17,1.27l2.2,1.21c1.43.79,2.89,1.53,4.34,2.28l1.68,4.67c.75,2.07,1.46,4.15,2.17,6.23-2.24-1.22-4.48-2.41-6.76-3.52-2.56-1.26-5.13-2.48-7.73-3.59,2.49,1.4,5,2.75,7.51,4.13,2.43,1.35,4.9,2.67,7.34,4.05,1.22,3.66,2.36,7.36,3.4,11.07-1.24-.76-2.5-1.51-3.77-2.24-1.56-.9-3.11-1.81-4.7-2.64-3.15-1.7-6.33-3.3-9.55-4.78,3.1,1.76,6.21,3.5,9.3,5.31,1.55.91,3.1,1.83,4.65,2.74,1.48.88,2.91,1.78,4.37,2.7l.21.75c.96,3.5,1.89,7.02,2.65,10.57-1.53-1.07-3.03-2.11-4.59-3.12-1.81-1.19-3.62-2.35-5.48-3.44-3.67-2.2-7.42-4.24-11.19-6.1,3.63,2.14,7.31,4.31,10.91,6.61,1.82,1.16,3.61,2.32,5.42,3.53,1.75,1.17,3.44,2.38,5.18,3.63.63,2.99,1.19,5.99,1.55,9.02.1.84.2,1.67.27,2.51-1.38-1.28-2.8-2.47-4.24-3.6-1.68-1.31-3.38-2.56-5.12-3.73-1.73-1.17-3.51-2.33-5.3-3.44-1.77-1.11-3.59-2.17-5.4-3.17,1.74,1.14,3.49,2.29,5.21,3.47,1.75,1.19,3.47,2.38,5.17,3.61,1.69,1.24,3.38,2.47,5.03,3.8,1.62,1.31,3.21,2.69,4.73,4.19.25,3.64.18,7.31-.41,10.92.06.05.1.09.1.09,0,0,.05-.02.12-.05.69-3.54.86-7.18.69-10.78l.1-.13Z"/>
            </g>
          </g>
        </g>
      </g>
    </g>
  </g>
</svg>