<?xml version="1.0" encoding="UTF-8"?><svg id="Capa_2" xmlns="http://www.w3.org/2000/svg" viewBox="0 0 424.56 400"><defs><style>.cls-1{fill:#bc1373;}.cls-2{fill:#fff;}</style></defs><g id="Capa_1-2"><g><g><path class="cls-2" d="M26.13,343.26h-9.12v11.93c0,3.83,.41,6.63,4.91,6.63,1.11,0,3.32-.15,4.22-1.03v9.21c-2.28,.88-4.84,1.1-7.26,1.1-6.91,0-12.23-3.02-12.23-10.83v-17.01H0v-8.84H6.64v-10.61h10.37v10.61h9.12v8.84Z"/><path class="cls-2" d="M54.12,345.98c-1.04-1.55-2.97-2.72-5.12-2.72-5.18,0-8.29,3.68-8.29,9.06s3.11,9.06,8.29,9.06c2.28,0,3.94-1.25,5.12-2.72l6.84,7.66c-3.25,3.54-8.02,4.79-11.96,4.79-10.37,0-18.66-7.37-18.66-18.78s8.29-18.78,18.66-18.78c3.94,0,8.71,1.25,11.96,4.79l-6.84,7.66Z"/><path class="cls-2" d="M82.12,333.53c10.37,0,18.66,7.37,18.66,18.78s-8.29,18.78-18.66,18.78-18.66-7.37-18.66-18.78,8.29-18.78,18.66-18.78Zm0,27.84c5.18,0,8.29-3.68,8.29-9.06s-3.11-9.06-8.29-9.06-8.29,3.68-8.29,9.06,3.11,9.06,8.29,9.06Z"/><path class="cls-2" d="M106.87,335.3h9.95v4.86h.14c1.38-2.8,4.77-5.74,9.81-5.74,4.7,0,8.57,2.06,10.37,6.41,2.42-4.57,5.67-6.41,10.64-6.41,9.12,0,11.89,6.85,11.89,15.54v21.14h-10.37v-20.84c0-3.31-1.18-6.11-4.56-6.11-4.77,0-6.29,3.61-6.29,8.03v18.93h-10.37v-18.93c0-2.65,.14-8.03-4.63-8.03-5.39,0-6.22,4.49-6.22,9.13v17.82h-10.37v-35.79Z"/><path class="cls-2" d="M167.97,334.42h9.54v4.71h.14c1.59-2.58,5.6-5.6,10.3-5.6,9.95,0,16.52,7.66,16.52,18.49,0,9.94-5.81,19.08-15.34,19.08-4.29,0-8.29-1.25-10.64-4.71h-.14v20.62h-10.37v-52.59Zm17.83,26.95c5.18,0,8.29-3.68,8.29-9.06s-3.11-9.06-8.29-9.06-8.29,3.68-8.29,9.06,3.11,9.06,8.29,9.06Z"/><path class="cls-2" d="M210.55,335.3h10.37v5.74h.14c2.21-4.34,5.11-6.63,9.68-6.63,1.18,0,2.49,.07,3.46,.37v10.09c-1.45-.44-2.9-.74-4.42-.74-7.88,0-8.85,4.86-8.85,12v14.95h-10.37v-35.79Z"/><path class="cls-2" d="M259.77,365.72h-.14c-2.28,3.83-6.43,5.38-10.64,5.38-6.29,0-11.96-3.83-11.96-11.05,0-12.37,14.1-12.59,22.74-12.59,0-3.9-3.04-6.41-6.64-6.41-3.39,0-6.22,1.62-8.43,4.27l-5.53-6.04c3.8-3.83,9.33-5.74,14.79-5.74,12.1,0,15.34,6.55,15.34,18.49v18.19h-9.54v-4.49Zm-2.56-11.19c-3.18,0-10.23,.29-10.23,5.15,0,2.65,2.63,3.9,4.91,3.9,4.08,0,7.88-2.28,7.88-6.7v-2.36h-2.56Z"/><path class="cls-2" d="M282.37,357.54c3.52,0,6.36,3.02,6.36,6.78s-2.83,6.78-6.36,6.78-6.36-3.02-6.36-6.78,2.83-6.78,6.36-6.78Z"/><path class="cls-2" d="M319.01,345.98c-1.04-1.55-2.97-2.72-5.12-2.72-5.18,0-8.29,3.68-8.29,9.06s3.11,9.06,8.29,9.06c2.28,0,3.94-1.25,5.12-2.72l6.84,7.66c-3.25,3.54-8.02,4.79-11.96,4.79-10.37,0-18.66-7.37-18.66-18.78s8.29-18.78,18.66-18.78c3.94,0,8.71,1.25,11.96,4.79l-6.84,7.66Z"/><path class="cls-2" d="M347,333.53c10.37,0,18.66,7.37,18.66,18.78s-8.29,18.78-18.66,18.78-18.66-7.37-18.66-18.78,8.29-18.78,18.66-18.78Zm0,27.84c5.18,0,8.29-3.68,8.29-9.06s-3.11-9.06-8.29-9.06-8.29,3.68-8.29,9.06,3.11,9.06,8.29,9.06Z"/><path class="cls-2" d="M371.75,335.3h9.95v4.86h.14c1.38-2.8,4.77-5.74,9.81-5.74,4.7,0,8.57,2.06,10.37,6.41,2.42-4.57,5.67-6.41,10.64-6.41,9.12,0,11.89,6.85,11.89,15.54v21.14h-10.37v-20.84c0-3.31-1.18-6.11-4.56-6.11-4.77,0-6.29,3.61-6.29,8.03v18.93h-10.37v-18.93c0-2.65,.14-8.03-4.63-8.03-5.39,0-6.22,4.49-6.22,9.13v17.82h-10.37v-35.79Z"/></g><g><path class="cls-1" d="M219.28,385.1h-3.05v3.98c0,1.28,.14,2.21,1.64,2.21,.37,0,1.11-.05,1.41-.34v3.07c-.76,.29-1.62,.37-2.42,.37-2.31,0-4.08-1.01-4.08-3.61v-5.68h-2.22v-2.95h2.22v-3.54h3.46v3.54h3.05v2.95Z"/><path class="cls-1" d="M231.83,394.1h-3.32v-1.62h-.05c-.46,.93-1.59,1.92-3.28,1.92-3.51,0-4.15-2.46-4.15-5.65v-6.59h3.46v5.85c0,1.38,.02,3.15,1.8,3.15s2.08-1.5,2.08-3.05v-5.95h3.46v11.95Z"/><path class="cls-1" d="M241.11,382.45h3.32v1.62h.05c.46-.93,1.59-1.92,3.28-1.92,1.57,0,2.86,.69,3.46,2.14,.81-1.52,1.89-2.14,3.55-2.14,3.05,0,3.97,2.29,3.97,5.19v7.06h-3.46v-6.96c0-1.11-.39-2.04-1.52-2.04-1.59,0-2.1,1.2-2.1,2.68v6.32h-3.46v-6.32c0-.89,.05-2.68-1.55-2.68-1.8,0-2.08,1.5-2.08,3.05v5.95h-3.46v-11.95Z"/><path class="cls-1" d="M271.8,392.03c-1.11,1.5-2.93,2.36-4.73,2.36-3.46,0-6.23-2.46-6.23-6.27s2.77-6.27,6.23-6.27c3.23,0,5.26,2.46,5.26,6.27v1.16h-8.03c.28,1.4,1.27,2.31,2.61,2.31,1.13,0,1.89-.61,2.47-1.45l2.42,1.89Zm-2.93-5.26c.02-1.23-.88-2.26-2.12-2.26-1.52,0-2.35,1.11-2.45,2.26h4.57Z"/><path class="cls-1" d="M277.94,394.98c0,3.05-.99,5.02-4.15,5.02-.53,0-1.11-.02-1.62-.2l.18-3.27c.28,.15,.6,.22,.9,.22,1.2,0,1.22-1.5,1.22-2.41v-12.19h3.46v12.83Zm-1.73-18.73c1.11,0,2.01,.96,2.01,2.14s-.9,2.14-2.01,2.14-2.01-.96-2.01-2.14,.9-2.14,2.01-2.14Z"/><path class="cls-1" d="M286.24,381.86c3.46,0,6.23,2.46,6.23,6.27s-2.77,6.27-6.23,6.27-6.23-2.46-6.23-6.27,2.77-6.27,6.23-6.27Zm0,9.29c1.73,0,2.77-1.23,2.77-3.02s-1.04-3.02-2.77-3.02-2.77,1.23-2.77,3.02,1.04,3.02,2.77,3.02Z"/><path class="cls-1" d="M294.5,382.45h3.46v1.92h.05c.74-1.45,1.71-2.21,3.23-2.21,.39,0,.83,.02,1.15,.12v3.37c-.48-.15-.97-.25-1.48-.25-2.63,0-2.95,1.62-2.95,4.01v4.99h-3.46v-11.95Z"/><path class="cls-1" d="M311.05,382.15h3.18v1.57h.05c.53-.86,1.87-1.87,3.44-1.87,3.32,0,5.51,2.56,5.51,6.17,0,3.32-1.94,6.37-5.12,6.37-1.43,0-2.77-.42-3.55-1.57h-.05v6.88h-3.46v-17.55Zm5.95,9c1.73,0,2.77-1.23,2.77-3.02s-1.04-3.02-2.77-3.02-2.77,1.23-2.77,3.02,1.04,3.02,2.77,3.02Z"/><path class="cls-1" d="M325.26,382.45h3.46v1.92h.05c.74-1.45,1.71-2.21,3.23-2.21,.39,0,.83,.02,1.15,.12v3.37c-.48-.15-.97-.25-1.48-.25-2.63,0-2.95,1.62-2.95,4.01v4.99h-3.46v-11.95Z"/><path class="cls-1" d="M340.47,381.86c3.46,0,6.23,2.46,6.23,6.27s-2.77,6.27-6.23,6.27-6.23-2.46-6.23-6.27,2.77-6.27,6.23-6.27Zm0,9.29c1.73,0,2.77-1.23,2.77-3.02s-1.04-3.02-2.77-3.02-2.77,1.23-2.77,3.02,1.04,3.02,2.77,3.02Z"/><path class="cls-1" d="M347.56,382.45h3.74l2.84,8.11h.05l2.63-8.11h3.48l-4.43,11.95h-3.67l-4.64-11.95Z"/><path class="cls-1" d="M372.18,392.03c-1.11,1.5-2.93,2.36-4.73,2.36-3.46,0-6.23-2.46-6.23-6.27s2.77-6.27,6.23-6.27c3.23,0,5.26,2.46,5.26,6.27v1.16h-8.03c.28,1.4,1.27,2.31,2.61,2.31,1.13,0,1.89-.61,2.47-1.45l2.42,1.89Zm-2.93-5.26c.02-1.23-.88-2.26-2.12-2.26-1.52,0-2.35,1.11-2.45,2.26h4.57Z"/><path class="cls-1" d="M385.42,392.03c-1.11,1.5-2.93,2.36-4.73,2.36-3.46,0-6.23-2.46-6.23-6.27s2.77-6.27,6.23-6.27c3.23,0,5.26,2.46,5.26,6.27v1.16h-8.03c.28,1.4,1.27,2.31,2.61,2.31,1.13,0,1.89-.61,2.47-1.45l2.42,1.89Zm-2.93-5.26c.02-1.23-.88-2.26-2.12-2.26-1.52,0-2.35,1.11-2.45,2.26h4.57Z"/><path class="cls-1" d="M399.82,394.1h-3.18v-1.57h-.05c-.53,.86-1.87,1.87-3.44,1.87-3.32,0-5.51-2.56-5.51-6.17,0-3.32,1.94-6.37,5.12-6.37,1.43,0,2.77,.42,3.55,1.57h.05v-7.92h3.46v18.59Zm-5.95-9c-1.73,0-2.77,1.23-2.77,3.02s1.04,3.02,2.77,3.02,2.77-1.23,2.77-3.02-1.04-3.02-2.77-3.02Z"/><path class="cls-1" d="M408.41,381.86c3.46,0,6.23,2.46,6.23,6.27s-2.77,6.27-6.23,6.27-6.23-2.46-6.23-6.27,2.77-6.27,6.23-6.27Zm0,9.29c1.73,0,2.77-1.23,2.77-3.02s-1.04-3.02-2.77-3.02-2.77,1.23-2.77,3.02,1.04,3.02,2.77,3.02Z"/><path class="cls-1" d="M416.67,382.45h3.46v1.92h.05c.74-1.45,1.71-2.21,3.23-2.21,.39,0,.83,.02,1.15,.12v3.37c-.48-.15-.97-.25-1.48-.25-2.63,0-2.95,1.62-2.95,4.01v4.99h-3.46v-11.95Z"/></g><circle class="cls-1" cx="212.25" cy="151.65" r="151.65"/><g><path class="cls-2" d="M200.15,138.2h-29.65v38.22c0,12.27,1.35,21.23,15.95,21.23,3.6,0,10.78-.47,13.7-3.3v29.49c-7.41,2.83-15.72,3.54-23.59,3.54-22.46,0-39.76-9.67-39.76-34.68v-54.49h-21.56v-28.31h21.56v-33.97h33.7v33.97h29.65v28.31Z"/><path class="cls-2" d="M288.04,151.39c-3.22-4.68-9.22-8.24-15.86-8.24-16.08,0-25.72,11.14-25.72,27.41s9.65,27.41,25.72,27.41c7.07,0,12.22-3.79,15.86-8.24l21.22,23.17c-10.07,10.69-24.86,14.48-37.08,14.48-32.15,0-57.87-22.28-57.87-56.82s25.72-56.82,57.87-56.82c12.22,0,27.01,3.79,37.08,14.48l-21.22,23.17Z"/></g></g></g></svg>